<?xml version="1.0" encoding="UTF-8"?>
<svg id="Layer_9" data-name="Layer 9" xmlns="http://www.w3.org/2000/svg" xmlns:xlink="http://www.w3.org/1999/xlink" viewBox="0 0 704 704">
  <defs>
    <style>
      .cls-1 {
        fill: none;
      }

      .cls-2 {
        fill: #fff;
        fill-rule: evenodd;
      }

      .cls-3 {
        fill: #fff;
      }

      .cls-4 {
        clip-path: url(#clippath);
      }
    </style>
    <clipPath id="clippath">
      <rect class="cls-1" width="704" height="704"/>
    </clipPath>
  </defs>
  
  <g>
    <path class="cls-2" d="M327.17,371.88c-.03-1.38-.32-1.18-.32-3.47,0-5.39,1.92-12.93,6.94-12.93,4.03,0,7.38,6.57,8.2,10.09l-10.95,4.82c-1.35.58-2.46,1.16-3.87,1.48M289.01,368.41c0-19.54,16.09-16.26,16.09,5.99,0,18.99-16.09,15.71-16.09-5.99ZM397.19,368.41c0-13.09,8.98-15.67,13.08-10.24,1.02,1.35,2.61,3.49,3.01,5.19,1.36,0,6.71-1.16,7.57-1.58v17.98c-2.19-.51-3.72-1.68-5.99-2.21-.79,3.42-3.64,9.46-8.51,9.46-6.79,0-9.15-12.7-9.15-18.61ZM327.8,376.3c2.69-.63,22.16-9.94,23.97-10.09v14.19c-13.28,0-7.49-.74-11.27,3.87-3.58,4.36-7.04,3.35-9.94-1.28-1.92-3.06-1.74-4.56-2.77-6.69ZM298.22,415.09h-1.91c-2.6-.17-5.19-1.02-7.44-2.69-7.49-5.59-1.32-14.72-1.12-15.6-1.49-.13-2.68-.91-3.67-1.7-3.67-2.93-.53-7.38.51-9.34-2.94-1.97-6.94-8.55-6.94-13.56,0-6.13,1.26-9.07,4.77-13.52,1.5-1.9.54-.87,2.38-2.35,7.18-5.78,11.77-5.21,19.65-3.37,1.12-4.82,4.33-5.36,7.57-5.36s4.15,4.6,2.27,6.68l-4.16,2.78c1.01,1.51,4.47,4.26,5.68,9.46l.69-1.52c2.73-7.26,9.63-13.3,17.29-13.3,12.85,0,15.78,7.85,17.98,9.46v-8.2h11.04v1.26c1.44-.96,3.63-2.52,5.99-2.52,4.59,0,7.81,1.01,11.23,3.64.05.04.13.1.18.14,1.83,1.45,3.55,3.6,4.58,5.77.99,2.09,1.04,3.89,1.04,6.84h.32c0-3.71,3.9-9.5,6.12-11.22,3.19-2.47,6.72-5.18,12.17-5.18,11.67,0,14.45,6.77,16.4,8.2v-6.94h11.04v36.27h-11.04v-6.62c-2.93,3.37-8.61,7.89-14.82,7.89-7.8,0-14.32-4.1-17.77-10.3-.95-1.71-2.1-3.94-2.1-6.41l-.32,15.45h-11.04v-25.55c0-4.03-2.1-8.19-5.98-8.19s-6,4.19-6,8.19v25.55h-11.04v-8.2l-3.08,3.23c-4.23,4.26-8.55,6.23-14.9,6.23-8.43,0-17.18-9.07-17.66-14.82l-.6,1.61c-.26.76-.36.93-.66,1.55-1.58,3.17-2.3,4.54-5.13,7.17-2.44,2.27-6.99,4.81-11.6,4.81-5.42,0-4.77-.71-7.57-.95-.46,1.99-.46,1.16,0,3.15,3.69,1.77,10.85-1.69,16.73,2.51,3.01,2.15,3.46,4.59,3.46,8.21,0,6.39-6.03,10.95-12.55,11.36ZM295.95,410.36c-2.72,0-3.89-5.31-2.49-9.75.58-1.83.64-1.53,1.54-2.87,1.31.31,2.47.5,3.3,1.43,2.19,2.44.99,11.19-2.36,11.19Z"/>
    <path class="cls-2" d="M536.27,400.26h29.96c.29-1.1,5.64-8.77,6.68-10.34l6.88-10.47c1,.73,2.66,3.84,3.46,5.05l10.1,15.77h16.4c-2.04-3.86-13.16-20.39-16.15-25.17-.68-1.08-5.03-7.58-5.3-8.58,3.29-4.91,6.5-9.9,9.78-14.82.81-1.21,1.53-2.29,2.39-3.6l7.38-11.54h-13.56c-.89,1.33-12.31,18.4-12.62,19.55-1.9-1.39-11.97-19.55-13.56-19.55h-31.86v63.71ZM552.99,399l.29-60.84,19.58,30.57c0,.68-4.12,6.43-4.79,7.51l-15.08,22.77Z"/>
    <path class="cls-2" d="M494.01,339.71v-3.16h-16.72v63.71h16.72v-46.05c0-3.57,1.68-7.54,3.28-9.65,7.39-9.77,20.38-2.5,20.38,9.65v46.05h16.72v-40.68c0-3.85-1.09-6.89-2.63-9.99-1.68-3.37-3.01-4.93-5.49-7.44-5.94-6.01-17.43-10.53-26.58-5.91-4.12,2.08-4.07,2.62-5.67,3.47"/>
    <path class="cls-2" d="M243.91,362.73h10.09c2.83-12.14,11.99-6.19,11.99-1.26,0,4.34-8.34,4.83-13.52,6.67-4.1,1.45-10.45,4.49-10.45,9.73v1.58c0,6.7,7.55,11.04,14.51,11.04,3.76,0,6.54.14,9.78-1.58v.95h11.04v-21.13c0-16.8-17.69-20.87-27.54-13.66-2.16,1.58-5.23,4.83-5.9,7.67M259.05,386.39c-6.09,0-9.05-11.07-1.58-14.51,1.09-.5,7.65-2.74,8.84-2.84,0,3.57.39,8.97-.46,11.84-.91,3.03-3.06,5.51-6.79,5.51Z"/>
    <path class="cls-2" d="M434.72,362.73h10.09c.5-2.13,1.59-4.85,3.33-6.14,2.43-1.8,4.54-1.26,6.55.68.62.6,1,.94,1.39,1.76,2.19,4.5-1.05,5.7-4.92,6.89-4.44,1.37-10.57,2.36-14.6,5.58-8.33,6.66-2.18,18.98,10.78,18.98,3.76,0,6.54.14,9.78-1.58v.95h11.04v-21.13c0-16.8-17.69-20.87-27.54-13.66-2.16,1.58-5.23,4.83-5.89,7.67M449.86,386.39c-6.09,0-9.05-11.07-1.58-14.51,1.09-.5,7.64-2.74,8.83-2.84,0,3.57.4,8.97-.46,11.84-.91,3.03-3.05,5.51-6.79,5.51Z"/>
    <path class="cls-2" d="M535.64,319.84v1.26c0,3.92,4.23,6.94,8.2,6.94,2.81,0,4.58-.1,7.13-2.01,4.34-3.25,4.37-13.12-7.13-13.12-3.97,0-8.2,3.01-8.2,6.94"/>
    <path class="cls-2" d="M325.28,349.17h6.62c.22-.92,2-4.75,2.84-5.36.41,1.78,1.82,3.68,2.21,5.36h6.94c-.91-1.36-1.76-3.08-2.62-4.63l-2.42-4.83h-8.52c-.71,1.33-4.76,8.24-5.05,9.46"/>
    <path class="cls-2" d="M420.53,344.12c0,6.77,11.67,6.77,11.67,0,0-1.8-.6-2.54-1.66-3.39-3.22-2.58-10.01-1.47-10.01,3.39"/>
    <path class="cls-2" d="M196.31,309.67l-7.13-3.65c-.43-.2-.71-.36-1.08-.51l-3.29-1.22c-2.02-.81-3.88-1.25-6.15-1.74-2.76-.61-6.44-1.43-9.41-1.4l-1.46-.15c-2.98-.33-8.81.25-11.7.65-4.47.63-10.46,2.13-14.42,4.11-1.63.82-3.57,1.58-5.22,2.53l-1.02.58c-1.97,1.01-3.88,2.34-5.66,3.68-.61.46-1.17.87-1.75,1.31l-3.31,2.81c-2.64,2.04-7.99,8.49-9.94,11.8-.41.7-.74,1.19-1.17,1.89l-4.44,9.22-1.81,5.48c-.56,1.87-.99,4.05-1.28,5.8-1.84,11.08-.48,24.39,4.34,34.41.37.76.59,1.34.97,2.09.4.8.65,1.25,1.07,1.99.12.21.19.35.29.54l.12.21c.08.14.13.23.17.3.2.36.34.64.57,1.03.41.7.76,1.22,1.19,1.87.15.23.08.1.26.4.02.03.04.07.06.1.02.03.04.07.06.1l1.06,1.52c.96,1.39,1.95,2.88,3.15,4.08l8.67,8.4c1.16.97,2.35,1.81,3.62,2.66,1.84,1.23,3.73,2.45,5.76,3.43,3.67,1.76,7.21,3.38,11.17,4.47,3.02.84,6.84,1.78,10.39,2.02,6.35.43,10.87.4,17.16-.68,1.53-.26,3.56-.72,5.11-1.19,1.63-.49,3.13-.94,4.62-1.48,3.57-1.3,7.2-2.97,10.42-5.05,3.16-2.04,6.17-4.13,8.93-6.69l5.35-5.45c.3-.38.48-.5.76-.85,5.77-7.1,10.22-15.63,12.26-24.94,1.67-7.63,1.99-16.48.48-24.25-.31-1.62-.5-2.46-.88-3.94-.29-1.14-.6-2.63-1.1-3.75.65-.46.83-.43,1.51-.75.5-.24.95-.46,1.39-.71,12.93-7.45,14.83-24.47,4.16-34.91-6.58-6.43-17.94-7.62-25.71-2.91-2.52,1.53-4.56,3.38-6.42,5.66-.32.39-.47.66-.69,1.08M128.5,360.89c0-6.83,2.35-15.2,6.47-20.75,3.33-4.5,5.63-6.92,10.28-10.01,12.28-8.15,29.55-7.83,41.7,1.31.63.47,1.19.96,1.89,1.5,1.98,1.51,5.1,5.15,6.51,7.2,1.91,2.78,2.01,3.43,3.28,5.89l2.2,6.51c1.12,6.11,1.5,11.27-.2,17.51-.52,1.92-1.01,3.33-1.76,5.17-1.26,3.08-3.13,6.06-5.04,8.49-1.24,1.57-3.45,3.9-5.02,5.13-2.99,2.34-4.54,3.6-8.34,5.36-.44.2-.84.36-1.24.53-.25.11-.25.11-.58.23l-.47.19c-7.99,3.18-17.47,3.05-25.61.18l-.81-.32c-2.14-.83-5.32-2.48-7.18-3.76-.03-.02-.07-.05-.1-.07l-3-2.32s-.07-.04-.09-.06l-2.53-2.33c-.23-.28-.18-.27-.41-.54l-4.43-5.72c-1.46-2.16-3.12-6.09-3.88-8.51-.96-3.08-1.63-7.35-1.63-10.8Z"/>
    <path class="cls-2" d="M152.5,361.86c0,4,.99,6.78,3.58,9.3,1.43,1.39,1.69,1.62,3.34,2.46,4.51,2.29,9.78,1.61,13.74-1.73,4.69-3.94,5.7-10.93,2.52-15.98-.02-.03-.04-.07-.06-.09l-.12-.19s-.04-.07-.06-.1c-1.75-2.69-5.5-5.6-9.89-5.6-5.41,0-9.51,2.41-11.87,7.14-.61,1.22-1.18,3.02-1.18,4.78"/>
  </g>
</svg>