<?xml version="1.0" encoding="UTF-8"?>
<svg fill="#fff" id="Layer_1" data-name="Layer 1" xmlns="http://www.w3.org/2000/svg" viewBox="0 0 283.46 283.46">
  <path d="M71.9,174.48h3.42c2.43,0,3.56.63,3.56,3.17v7.15c0,2.54-1.13,3.17-3.56,3.17h-3.42v-13.53h0v.04ZM74.65,185.51h.63c.56,0,.81-.28.81-1.16v-6.24c0-.92-.21-1.16-.81-1.16h-.63v8.6h0v-.04Z"/>
  <path d="M87.13,187.98l2.29-13.53h3.66l2.29,13.53h-2.85l-.32-2.4h-1.9l-.28,2.4h-2.89ZM90.54,183.12h1.34l-.6-6.38h0l-.7,6.38h-.04Z"/>
  <path d="M115.28,177.37c0-2.22.95-3.17,3.49-3.17s3.49.95,3.49,3.17v1.9h-2.78v-2.01c0-.39-.35-.6-.7-.6s-.7.21-.7.95v7.22c0,.74.21.95.7.95s.7-.21.7-.6v-2.5h2.78v2.4c0,2.22-.99,3.17-3.49,3.17s-3.49-.95-3.49-3.17v-7.68h0v-.04Z"/>
  <polygon points="131.1 174.48 136.77 174.48 136.77 176.92 133.84 176.92 133.84 179.7 136.63 179.7 136.63 182.17 133.84 182.17 133.84 185.51 136.77 185.51 136.77 187.98 131.1 187.98 131.1 174.48"/>
  <path d="M145.65,187.98v-13.53h3.52c2.43,0,3.49.6,3.49,2.78v1.62c0,.81-.35,1.83-1.59,2.01h0c1.13.21,1.66.99,1.66,2.71v2.92c0,1.02,0,1.27.18,1.48h-2.78c-.11-.21-.18-.39-.18-.56v-4.62c0-.46-.32-.67-.88-.67h-.7v5.85h-2.75.04ZM148.43,179.7h.7c.6,0,.81-.18.81-1.37s-.14-1.37-.81-1.37h-.7v2.78h0v-.04Z"/>
  <polygon points="168.8 174.48 166.51 187.98 162.84 187.98 160.55 174.48 163.41 174.48 164.67 184.91 164.71 184.91 165.98 174.48 168.8 174.48"/>
  <polygon points="177.29 174.48 182.96 174.48 182.96 176.92 180.04 176.92 180.04 179.7 182.82 179.7 182.82 182.17 180.04 182.17 180.04 185.51 182.96 185.51 182.96 187.98 177.29 187.98 177.29 174.48"/>
  <path d="M193.81,183.72v1.23c0,.6.18.85.7.85s.7-.21.7-.85v-10.5h2.78v10.61c0,2.47-.99,3.17-3.42,3.17s-3.49-.7-3.49-3.17v-1.34h2.71Z"/>
  <path d="M206.39,187.98l2.29-13.53h3.66l2.29,13.53h-2.85l-.32-2.4h-1.9l-.28,2.4h-2.89ZM209.81,183.12h1.34l-.6-6.38h0l-.7,6.38h-.04Z"/>
  <path d="M39.03,188.47v.28c.04.46.39.81.85.85.11,0,2.15.18,4.3-.99.39-.21.67-.28.67-.14v.28c.04.46.39.81.85.85.14,0,3.42.28,5.99-2.29,1.41-1.41,1.97-3.03,2.18-4.26.07-.42.46-.78.92-.78h6.1c.25,0,.49-.11.67-.28s.28-.39.28-.67c0-.49-.42-.92-.92-.92h-6.1c-.46,0-.85-.35-.92-.78-.21-1.2-.81-2.85-2.18-4.23-2.57-2.57-5.85-2.29-5.99-2.29-.46.04-.81.39-.85.85v.28c0,.18-.28.07-.67-.14-2.11-1.16-4.16-.99-4.26-.99-.46.04-.81.39-.85.85v.28c0,.18-.28.07-.67-.14-2.11-1.16-4.16-.99-4.3-.99-.46.04-.81.39-.85.85v.28c0,.14-.28.07-.67-.14-1.27-.7-2.54-.92-3.35-.99h-4.26c-.49,0-.92.42-.92.92s.42.92.92.92h1.69c.46,0,.81.35.92.78.11.53.25,1.16.53,1.8.18.42.04.67-.32.63h-.67c-2.29,0-3.98.99-4.93,1.76-.35.28-.95.53-1.41.53h-3.38c-.53,0-.92.42-.95.92,0,.53.42.92.92.95h3.38c.46,0,1.06.25,1.41.53.95.78,2.64,1.76,4.93,1.76s.46,0,.67,0c.39,0,.49.21.32.63-.28.63-.46,1.27-.53,1.8-.07.42-.46.78-.92.78h-1.69c-.49,0-.92.42-.92.95s.42.92.92.92h4.26c.81-.07,2.08-.28,3.35-.99.39-.21.67-.28.67-.14v.28c.04.46.39.81.85.85.11,0,2.15.18,4.3-.99.39-.21.67-.28.67-.14M46.85,175.79c-.11-.42.21-.74.63-.63.85.21,1.94.63,2.85,1.59s1.37,2.01,1.59,2.89c.11.42-.21.74-.63.63-.88-.21-1.97-.67-2.89-1.59-.95-.95-1.37-2.01-1.59-2.85M51.96,183.12c-.21.88-.67,1.97-1.59,2.89-.95.95-2.01,1.37-2.85,1.59-.42.11-.74-.21-.63-.63.21-.85.63-1.94,1.59-2.85s2.01-1.37,2.89-1.59c.42-.11.74.21.63.63M41.08,175.79c-.11-.42.21-.74.63-.63.85.21,1.94.63,2.85,1.59.95.95,1.37,2.01,1.59,2.89.11.42-.21.74-.63.63-.88-.21-1.94-.67-2.89-1.59s-1.37-2.01-1.59-2.85M46.18,183.12c-.21.88-.67,1.97-1.59,2.89-.95.95-2.01,1.37-2.85,1.59-.42.11-.74-.21-.63-.63.21-.85.63-1.94,1.59-2.85.95-.95,2.01-1.37,2.89-1.59.42-.11.74.21.63.63M35.26,175.79c-.11-.42.21-.74.63-.63.85.21,1.94.63,2.85,1.59s1.37,2.01,1.59,2.89c.11.42-.21.74-.63.63-.88-.21-1.97-.67-2.89-1.59s-1.37-2.01-1.59-2.85M29.45,175.79c-.11-.42.21-.74.63-.63.85.21,1.94.63,2.85,1.59s1.37,2.01,1.59,2.89c.11.42-.21.74-.63.63-.88-.21-1.94-.67-2.89-1.59-.95-.95-1.37-2.01-1.59-2.85M23.95,181.81c-.39-.25-.39-.67,0-.92.78-.46,1.83-.92,3.14-.92s2.4.46,3.17.92c.39.21.39.67,0,.92-.78.46-1.87.92-3.17.92s-2.4-.42-3.14-.92M30.12,187.59c-.42.11-.74-.21-.63-.63.21-.85.63-1.94,1.59-2.85s2.01-1.37,2.89-1.59c.42-.11.74.21.63.63-.21.88-.67,1.94-1.59,2.89-.95.95-2.01,1.37-2.85,1.59M35.26,186.92c.21-.85.63-1.94,1.59-2.85s2.01-1.37,2.89-1.59c.42-.11.74.21.63.63-.21.88-.67,1.97-1.59,2.89-.95.95-2.01,1.37-2.85,1.59-.42.11-.74-.21-.63-.63"/>
  <path d="M247.89,188.61c2.11,1.16,4.16.99,4.3.99.46-.04.81-.39.85-.85v-.28c0-.18.28-.07.67.14,1.27.7,2.54.92,3.35.99h4.23c.53,0,.95-.42.95-.92s-.42-.95-.95-.92h-1.66c-.46,0-.81-.35-.92-.78-.11-.53-.25-1.16-.53-1.8-.18-.42-.04-.67.32-.63h.67c2.29,0,3.98-.99,4.93-1.76.35-.28.95-.53,1.41-.53h3.38c.49,0,.92-.42.92-.92s-.42-.92-.92-.92h-3.38c-.46,0-1.06-.25-1.41-.53-.95-.78-2.64-1.76-4.93-1.76s-.46,0-.67,0c-.39,0-.49-.21-.32-.63.28-.63.46-1.27.53-1.8.07-.42.46-.78.92-.78h1.66c.49,0,.95-.42.92-.92,0-.49-.42-.92-.92-.92h-4.23c-.81.07-2.08.28-3.35.99-.39.21-.67.28-.67.14v-.28c-.04-.46-.39-.81-.85-.85-.11,0-2.15-.18-4.3.99-.39.21-.67.28-.67.14v-.28c-.04-.46-.39-.81-.85-.85-.11,0-2.15-.18-4.26.99-.39.21-.67.28-.67.14v-.28c0-.46-.39-.81-.85-.85-.14,0-3.42-.28-5.99,2.29-1.41,1.41-1.97,3.03-2.18,4.23-.07.42-.46.78-.92.78h-6.1c-.49,0-.92.42-.92.95s.11.49.28.67.39.28.67.28h6.1c.46,0,.81.35.92.78.21,1.2.81,2.85,2.18,4.26,2.57,2.57,5.85,2.29,5.99,2.29.46-.04.81-.39.85-.85v-.28c0-.14.28-.07.67.14,2.11,1.16,4.16.99,4.3.99.46-.04.81-.39.85-.85v-.28c0-.14.28-.07.67.14M237.78,178.61c-.95.95-2.01,1.37-2.89,1.59-.42.11-.74-.21-.63-.63.21-.88.67-1.97,1.59-2.89.95-.95,2.01-1.37,2.85-1.59.42-.11.74.21.63.63-.21.85-.63,1.94-1.59,2.85M234.89,182.48c.88.21,1.97.67,2.89,1.59s1.37,1.97,1.59,2.85c.11.42-.21.74-.63.63-.85-.21-1.9-.63-2.85-1.59-.92-.92-1.37-2.01-1.59-2.89-.11-.42.21-.74.63-.63M243.6,178.61c-.95.95-2.01,1.37-2.89,1.59-.42.11-.74-.21-.63-.63.21-.88.67-1.97,1.59-2.89.95-.95,1.97-1.37,2.85-1.59.42-.11.74.21.63.63-.21.85-.63,1.94-1.59,2.85M240.71,182.48c.88.21,1.97.67,2.89,1.59.95.95,1.37,1.97,1.59,2.85.11.42-.21.74-.63.63-.85-.21-1.9-.63-2.85-1.59-.92-.92-1.37-2.01-1.59-2.89-.11-.42.21-.74.63-.63M249.41,178.61c-.92.92-2.01,1.37-2.89,1.59-.42.11-.74-.21-.63-.63.21-.88.67-1.97,1.59-2.89.95-.95,1.97-1.37,2.85-1.59.42-.11.74.21.63.63-.21.85-.63,1.94-1.59,2.85M255.22,178.61c-.95.95-2.01,1.37-2.89,1.59-.42.11-.74-.21-.63-.63.21-.88.67-1.97,1.59-2.89.95-.95,2.01-1.37,2.85-1.59.42-.11.74.21.63.63-.21.85-.63,1.94-1.59,2.85M259.17,182.73c-1.3,0-2.4-.46-3.17-.92-.39-.21-.39-.67,0-.92.78-.46,1.87-.92,3.17-.92s2.4.42,3.14.92c.39.25.39.67,0,.92-.74.46-1.8.92-3.14.92M253.29,186.01c-.95-.95-1.37-2.01-1.59-2.89-.11-.42.21-.74.63-.63.88.21,1.97.67,2.89,1.59.95.95,1.37,1.97,1.59,2.85.11.42-.21.74-.63.63-.85-.21-1.9-.63-2.85-1.59M250.33,187.59c-.85-.21-1.94-.63-2.85-1.59-.92-.92-1.37-2.01-1.59-2.89-.11-.42.21-.74.63-.63.88.21,1.97.67,2.89,1.59.95.95,1.37,1.97,1.59,2.85.11.42-.21.74-.63.63"/>
  <g>
    <path d="M32.09,112.16l-7.58,44.99c-.07.46.25.85.7.85h9.02c.49,0,.92-.39.99-.85l1.37-8.67c.07-.46.49-.85.99-.85h4.79c.46,0,.92.39.99.85l1.48,8.67c.07.46.53.85.99.85h9.02c.49,0,.81-.39.7-.85l-7.33-44.99c-.07-.46-.49-.85-.99-.85h-14.2c-.46,0-.92.39-.99.85M37.45,137.63l2.47-15.68c.07-.46.18-.85.21-.85s.11.39.18.85l2.18,15.64c.07.46-.25.85-.74.85h-3.59c-.46,0-.78-.39-.7-.85"/>
    <path d="M74.58,111.31h-13.28c-.46,0-.85.39-.85.28v44.96c0,1.06.39,1.41.85,1.41h8.49c.46,0,.85-.39.85-.85v-17.93c0-.46,0-.85.07-.85s.18.35.32.81l5.39,17.97c.14.46.63.81,1.09.81h9.09c.46,0,.74-.35.56-.81l-6.8-19.13c-.14-.42.07-.88.53-1.06,4.9-1.83,5.85-7.33,5.85-12.54,0-9.02-5.04-13.14-12.75-13.14M71.52,130.9c-.49,0-.85-.39-.85-.85v-8.7c0-.46.28-.85.67-.85h.63c3.14,0,4.19,2.01,4.19,5.43s-.7,4.97-3.45,4.97h-1.2Z"/>
    <path d="M110.84,128.15l-2.54-16c-.07-.46-.49-.85-.99-.85h-13.71c-.46,0-.85.39-.85.85v44.96c0,.46.39.85.85.85h8.1c.46,0,.85-.39.85-.85v-27.73c0-.46.07-.46.14,0l4.76,27.73c.07.46.49.85.99.85h4.83c.49,0,.92-.39.99-.85l4.76-27.73c.07-.46.14-.46.14,0v27.73c0,.46.39.85.85.85h8.1c.46,0,.85-.39.85-.85v-44.96c0-.49-.39-.85-.85-.85h-13.21c-.49,0-.92.39-.99.85l-2.78,16c-.07.46-.21.46-.28,0"/>
    <path d="M141.28,112.16l-7.58,44.99c-.07.46.25.85.7.85h9.02c.46,0,.92-.39.99-.85l1.37-8.67c.07-.46.49-.85.99-.85h4.79c.46,0,.92.39.99.85l1.48,8.67c.07.46.53.85.99.85h9.02c.46,0,.78-.39.7-.85l-7.33-44.99c-.07-.46-.49-.85-.99-.85h-14.2c-.46,0-.92.39-.99.85M146.63,137.63l2.47-15.68c.07-.46.18-.85.21-.85s.11.39.18.85l2.18,15.64c.07.46-.25.85-.74.85h-3.59c-.46,0-.78-.39-.7-.85"/>
    <path d="M170.17,121.53h10.08c.49,0,.7.32.49.78l-11.45,24.59c-.21.42-.35,1.16-.35,1.62v8.63c0,.46.39.85.85.85h21.03c.49,0,.85-.39.85-.85v-8.49c0-.49-.39-.85-.85-.85h-10.32c-.46,0-.7-.35-.49-.78l11.45-24.59c.18-.42.35-1.13.35-1.62v-8.63c0-.49-.39-.85-.85-.85h-20.79c-.46,0-.85.39-.85.85v8.49c0,.46.39.85.85.85"/>
    <path d="M204.84,107.79h7.33c.46,0,1.02-.32,1.27-.74l2.75-4.97c.21-.42,0-.74-.46-.74h-8.1c-.46,0-.99.35-1.16.81l-2.08,4.9c-.18.42.04.78.49.78"/>
    <path d="M198.22,157.96h21c.49,0,.85-.39.85-.85v-8.49c0-.49-.39-.85-.85-.85h-10.39c-.49,0-.85-.39-.85-.85v-6.27c0-.46.39-.85.85-.85h8.32c.49,0,.85-.39.85-.85v-8.49c0-.46-.39-.85-.85-.85h-8.32c-.49,0-.85-.39-.85-.85v-6.41c0-.46.39-.85.85-.85h10.39c.49,0,.85-.39.85-.85v-8.49c0-.49-.39-.85-.85-.85h-21c-.46,0-.85.39-.85.85v44.96c0,.46.39.85.85.85"/>
    <path d="M243.6,128.15l-2.54-16c-.07-.46-.49-.85-.99-.85h-13.71c-.46,0-.85.39-.85.85v44.96c0,.46.39.85.85.85h8.1c.46,0,.85-.39.85-.85v-27.73c0-.46.07-.46.14,0l4.76,27.73c.07.46.53.85.99.85h4.83c.49,0,.92-.39.99-.85l4.76-27.73c.07-.46.14-.46.14,0v27.73c0,.46.39.85.85.85h8.1c.46,0,.85-.39.85-.85v-44.96c0-.49-.39-.85-.85-.85h-13.21c-.46,0-.92.39-.99.85l-2.78,16c-.07.46-.21.46-.28,0"/>
  </g>
</svg>