<?xml version="1.0" encoding="UTF-8"?>
<svg fill="#fff" id="Layer_1" data-name="Layer 1" xmlns="http://www.w3.org/2000/svg" viewBox="0 0 283.46 283.46">
  <path d="M94.35,131.4h-1.47v17.12h1.32c2.57,0,3.52-1.47,3.52-4.55v-8.09c0-3.59-1.32-4.48-3.37-4.48Z"/>
  <path d="M68.85,152.93h-1.69v17.7h1.69c1.98,0,3.3-.88,3.3-5.14v-7.28c0-3.75-.96-5.29-3.3-5.29Z"/>
  <polygon points="119.32 143.01 116.24 162.4 122.7 162.4 119.61 143.01 119.32 143.01"/>
  <polygon points="206.68 143.01 203.6 162.4 210.06 162.4 206.98 143.01 206.68 143.01"/>
  <path d="M72,141.61v-4.92c0-4.48-1.25-5.29-3.3-5.29h-1.54v15.43h1.76c2.05,0,3.08-.81,3.08-5.22Z"/>
  <path d="M33.85,101.69v98.65h211.38v-98.65H33.85ZM68.48,176.73h-10.88v-51.43h10.96c8.45,0,11.97,5.07,11.97,13,0,5.29-1.54,8.89-4.77,10.88,3.67,1.76,5.44,5.29,5.44,12.56,0,9.85-4.05,14.99-12.72,14.99ZM98.01,176.73l-3.15-22.63h-1.98v22.63h-9.18v-51.43h11.53c8.09,0,11.83,4.62,11.83,13.58,0,5.95-1.25,9.92-4.12,12.28l4.56,25.57h-9.49ZM124.98,176.73l-1.4-8.89h-8.23l-1.39,8.89h-5.66l8.59-51.43h8.38l9.04,51.43h-9.33ZM159.15,176.73h-9.18v-23.73h-4.63v23.73h-9.18v-51.43h9.18v21.45h4.63v-21.45h9.18v51.43ZM193.82,176.73h-9.18v-28.51h-.29l-5.22,28.51h-4.56l-5.44-28.51h-.29v28.51h-5.29v-51.43h9.55l5.51,29.98h.29l5.36-29.98h9.55v51.43ZM212.34,176.73l-1.39-8.89h-8.24l-1.39,8.89h-5.66l8.6-51.43h8.37l9.04,51.43h-9.33Z"/>
</svg>