<?xml version="1.0" encoding="UTF-8"?>
<svg id="Layer_1" fill="#fff" data-name="Layer 1" xmlns="http://www.w3.org/2000/svg" viewBox="0 0 1044.26 362.3">
  <path d="M53.28,215c1.75.95,4.64,3.14,4.71,9.38-.84,19.22,1.24,36.53,8.52,46.72,7.14,10,28.55,15.65,41.63,1.62,13.07-14.04,13.15-32.45,11.48-43.3-.96-5.34-3.43-9.64-7.66-9.17-4.22.48-5.66,3.43-5.34,16.75.32,13.31-4.7,23.76-12.91,23.76s-15.15-12.2-12.84-47.44c2.31-35.24,7.57-48.24,7.57-48.24,3.19-7.57,8.61-11.24,12.44-.96,3.83,10.29,7.89,18.74,13.08,17.07,5.18-1.68,4.7-7.42,2.15-15.87-2.55-8.45,0-14.35,1.36-20.09,1.78-6.32,1.05-8.81-1.13-9.5s-4.17-.04-5.96,6.24c-1.8,6.27-2.4,8.68-2.4,8.68-1.16,3.54-2.05,3.21-3.79.86-4.73-6.39-13.62-8.77-22.29,1.44-6.34,7.46-14.54,23.25-19.42,41.05l-.05.02c-.05.28-.11.55-.17.81-.14.53-.28,1.05-.41,1.58-2.31,7.91-6.94,9.48-9.11,10.42-2.38,1.09-3.45,1.91-3.55,3.61-.14,2.2,2.31,3.59,4.09,4.56"/>
  <path d="M553.64,142.06c-4.22.48-5.63,3.47-5.17,16.96.46,13.48-4.45,24.06-12.67,24.06s-15.28-12.36-13.34-48.04c1.94-35.69,7.07-48.86,7.07-48.86,3.11-7.67,8.49-11.38,12.43-.96,3.94,10.41,8.09,18.97,13.26,17.27,5.17-1.69,4.63-7.5,1.99-16.06s.77-17.97,4.14-22.84c3.98-5.25,4.22-7.86,2.44-9.34-1.77-1.48-3.86-1.63-7.84,3.57-3.97,5.2-7.03,13.75-7.03,13.75-1.12,3.58-2.02,3.25-3.78.87-4.8-6.47-13.72-8.88-22.29,1.45-6.28,7.57-14.33,23.61-19.01,41.67h-.05c-.04.24-.09.47-.13.69-.18.71-.36,1.42-.53,2.14-2.3,8.03-6.92,10.15-9.1,11.36-2.42,1.39-3.5,2.35-3.59,4.09-.11,2.24,2.4,3.34,4.23,4.11,1.83.77,4.91,2.68,4.92,9.31h.06c-.51,19.02,2.05,35,9.05,46.3,6.56,10.58,28.73,15.84,41.67,1.63,12.93-14.21,12.81-32.86,11.02-43.84-1.01-5.41-3.53-9.77-7.75-9.29"/>
  <path d="M723.14,161.98h0c-.12,19.39-.23,36.39-.23,36.39,0,6.07-.55,7.32-4.21,11.1-3.67,3.78-2.9,6.29.94,6.98,3.85.7,19.03,2.82,19.03,2.82,6.22.83,4.13-3.27,2.93-5.94-4.49-9.97-4.03-11.36-4.03-17.82v-62.31l23.72,69.36c2.01,6.44,2.75,8.79,1.01,12.91-1.74,4.12-2.66,7.62,1.83,8.43,4.49.81,13.03,2.47,13.03,2.47,6.41,1.16,6.87-1.36,4.03-7.57-2.84-6.2-2.96-10.17-2.96-18.17v-29c.25-7.85,2.57-7.93,4.21-8.43,1.66-.52,3.93-1.28,3.81-3.53-.1-1.75-1.1-2.86-3.31-4.57-2.18-1.64-4.32-4.25-4.71-14.33v-25.47c0-10.25.61-10.78,2.87-14.63,1.6-2.73,3.43-4.14,3.07-6.08-.36-1.94-3.26-2.15-5.05-2.59l-15.61-3.23c-4.94-1.08-6.37.74-2.3,7.18,2.3,3.65,3.1,4.93,3.1,13.32v40.43l-18.04-54.7c-2.2-6.86-3.95-10.17-7.33-10.97-5.04-1.2-13.74-2.67-13.74-2.67-6.96-1.26-7.83.09-5.4,6.06,4.71,11.6,3.66,10.35,3.66,19.35,0,2.22-.05,12.09-.13,24.58l-.19,30.63Z"/>
  <path d="M933.62,169.54c-2.11-1.39-3.54-5.61-6.08-13.39-.17-.55-.35-1.08-.53-1.62-.1-.31-.2-.62-.3-.94h0c-7.12-20.09-23.53-32.23-39.88-36.3,0,0-14.79-3.56-19.65-4.32-4.73-.74-4.77,3.85-3.6,7.31,2.99,8.87,5.09,13.2,5.09,17.61v92.39c0,4.85.56,6.46-5.09,10.94-3.1,2.47-4.29,6.86-.04,7.93,0,0,9.88,2.51,19.29,4.91,9.41,2.4,10.41,1.87,11.66-.22s.33-3.94-2-8.37c-2.83-5.09-3.17-7.76-3.17-10.31v-34.12c4.18,2.07,9.18,4.28,12.43,21.16l3.6,20.62c.64,4.53,1.48,5.94-1.37,9.38-2.86,3.44-4.12,7.02,4.33,9.88,8.46,2.86,20.19,6.11,20.19,6.11,6.24,1.88,6.34-3.25,3.91-7.15-2.43-3.9-7.33-10.62-7.93-14.66-.46-3.13-2.13-28.5-9.31-43.93,5.01-3.06,8.91-8.29,11.46-14.28h0c3.6-8,4.71-9.27,6.46-9.99,1.75-.71,4.15-1.74,4.02-4.11-.1-1.85-1.15-2.93-3.49-4.53M890.23,132.56c.58-.65,3.75-1.61,8.41,2.67,4.67,4.28,10.16,15.06,10.91,30.36s-4.2,21.54-6.83,23.19c-1.49.94-9.85,2.31-13.41-6.3v-35.56c0-13.12.34-13.71.92-14.36"/>
  <path d="M124.51,259.1c-2.9,3.73-4.27,8.23,1.44,7.08,5.72-1.14,20.12-5.2,20.12-5.2,5.53-1.73,6.5-4.76,2.15-7.37s-5.06-3.27-4.65-7.38c.4-4.12,1.19-8.01,1.71-8.95.51-.94,16.64-4.93,17.6-4.23.96.71,2.64,8.17,2.64,8.17,1.07,3.88-.13,5.44-2.07,8.45-1.94,3-4.01,7.45.35,6.6,4.37-.85,23.13-5.01,23.13-5.01,3.86-.72,6.95-3.32,3.37-6.63-3.58-3.31-5.43-5.33-5.81-6.78-.38-1.45-17.43-92.06-17.43-92.06-.81-4.93-.56-6.13,1.97-9.72,3.42-4.88,8.12-8.34,4.86-11.96-3.25-3.62-7.77,1.52-15.74,3.26-7.96,1.74-10.39-.07-19.12-.54-8.73-.48-12.03,5.4-12.36,8.76-.34,3.36,3.83,4.37,8.19,5.08,4.36.71,10.71,2.68,10.1,8.24l-5.18,34.32c-2.18,9.43-7.4,11.9-9.62,13.16-2.31,1.38-3.36,2.35-3.46,4.11-.14,2.27,2.22,3.41,3.95,4.21,1.69.78,4.47,2.68,4.53,9l-5.16,34.24c-.93,5.46-2.6,7.42-5.51,11.15M145.85,221.5l7.03-48.16s8.01,44.48,8.39,46.35c.38,1.88-1.09,2.18-3.92,3,0,0-4.57,1.06-8.42,1.83-3.51.71-3.41-.72-3.08-3.02"/>
  <path d="M346.7,97.16c4.36,3.93,4.77,4.35,3.27,11.85l-16.14,89.82c-1.05,5.36-2.82,7.18-5.89,10.66-3.07,3.49-4.56,7.86,1.37,7.15,5.94-.7,20.9-3.65,20.9-3.65,5.75-1.31,6.82-4.24,2.36-7.16-4.46-2.92-5.18-3.64-4.69-7.69.49-4.06,1.37-7.87,1.92-8.77.56-.89,17.31-3.64,18.29-2.87.99.77,2.59,8.31,2.59,8.31,1.05,3.93-.23,5.39-2.29,8.24-2.06,2.84-4.28,7.1.26,6.58,4.53-.51,24.01-3.24,24.01-3.24,4.01-.43,7.25-2.78,3.6-6.33-3.64-3.56-5.52-5.71-5.89-7.18-.15-.61-3.05-16.91-6.37-35.68-.1-5.56,2.85-8.22,4.46-9.44,1.73-1.31,4.1-3.15,3.77-5.3-.26-1.67-1.43-2.27-3.95-2.89-2.49-.55-5.61-.74-9.32-10.92-2.8-15.93-5.03-28.55-5.03-28.55-.75-4.96-.72-6.34,2.21-9.52,3.89-4.22,8.58-7.08,6.09-11.61-2.51-4.55-11.2,2.04-17.19,2.16-18.41.34-24.31-2.08-27.99,3.4-3.68,5.47,2.49,9.77,9.65,12.63M366.66,173.1c.36,1.89-1.17,2.08-4.11,2.68,0,0-4.75.72-8.74,1.19-3.65.44-3.52-.98-3.14-3.23l8.12-47.33s7.51,44.8,7.87,46.69"/>
  <path d="M187.42,124.96c7.9,5.31,11.17,8.04,11.17,11.83v29.4c-.93,10-5.13,12.2-7.21,13.85-2.25,1.84-3.21,3.01-3.12,4.83.12,2.34,2.71,3.07,4.59,3.56,1.83.48,4.93,1.89,5.74,8.27v28.86c0,5.99-.93,7.45-3.44,12.57-2.51,5.12-2.88,9.97,2.23,8.69,5.11-1.29,37.35-8.77,39.77-9.29s6.97,1.89,11.06-.62c4.09-2.5,5.57-5.55,5.29-15.98-.28-10.42,3.16-35.76,3.72-42.83.56-7.08-4.65-9.87-7.9,1.66-3.25,11.54-7.99,29.32-7.99,29.32-3.44,9.57-3.81,12.63-14.12,17.81-4.28,1.83-6.97,2.7-7.9,1.76-.93-.93.37-96.41.37-96.41,0-8.68,4.46-13.74,9.11-19.93,4.64-6.2,3.99-9.47,2.51-11.11-1.49-1.64-4.93-.64-10.78,3.76-5.85,4.41-16.91,8.62-23.6,9.48-6.69.86-9.2.1-11.62,3.81-2.41,3.71,2.12,6.71,2.12,6.71"/>
  <path d="M246.99,131.93c5.71.81,11.95-3.15,13.5-7.34,1.9-5.13,1.44-11.98-3.8-12.19-6.7-.26-7.38,5.33-7.38,5.33-.84,3.54-3.07,2.97-3.3-.18-.32-4.36,3.85-11.06,11.21-12.3,7.61-1.28,9.05.81,9.07,8.37.02,7.55-.26,94.8-.26,94.8.02,7.49-1.85,9.51-4.35,13.3-2.51,3.79-3.98,7.52.86,7.94,4.84.42,17.61.57,31.99-3.99,14.37-4.56,28.58-22.83,33.34-53.73.23-1.49.42-2.94.61-4.36.01-.13.03-.25.04-.38.05-.35.1-.7.14-1.05.86-5.84,3.26-8.16,4.96-9.23,1.83-1.16,4.34-2.8,4.45-5.11.09-1.79-.86-2.58-3.04-3.56-2.04-.85-4.67-1.43-6.14-11.01-.09-.67-.18-1.32-.27-1.97,0-.07-.02-.14-.03-.21h0c-1.39-9.18-3.87-15.87-6.03-21.09-4.35-10.55-18.07-28.1-43.86-23.01-25.8,5.1-37.58,15.54-39.74,26.28-1.2,7.45,1.06,13.7,8.04,14.69M286.16,202.68l.96-89.88c-.02-6.14-.02-8.69,3.7-9.43,5.7-1.12,8.88,5.81,11.8,16.93,2.91,11.11,6.98,33.76,2.76,61.2-4.22,27.43-9.77,31.53-14.69,32.5s-4.51-3.16-4.53-11.32"/>
  <path d="M402.27,188.84c-.98,8.96-1.41,12.66.98,14.21,2.45,1.42,6.56-.18,6.56-.18,3.81-1.63,4.73-2.2,9.57.72,4.84,2.91,15.59,6.22,26.08-1.9,8.59-6.65,13.28-22.34,10.23-44.14-.67-4.71-2.45-9.5-4.87-14.16h.03c-3.38-6.45-1.8-10.46-.75-12.12,1.04-1.65,2.45-3.96,1.14-5.6-1.03-1.28-2.42-1.38-5.12-1.02-2.41.36-5.18,1.16-11.96-4.1-11.35-9.81-13.79-13.8-15.4-18.95-2.4-7.66-1.34-13.54,3.12-15.86,3.35-1.76,7.76-1.98,16.47,18.7,1.8,4.53,3.49,7.07,6.75,6.02,3.26-1.06,3.94-4.19,3.21-8.97s-2.59-9.36-1.07-16.71,3.15-13.02,3.15-13.02c.95-3.87.22-5.66-1.47-6.27-1.68-.61-3.88.26-6.24,4.31-2.36,4.05-4.35,9.1-8.95,6.22-6.55-4.09-15.64-7.89-25.45.45-9.81,8.34-11.04,24.75-4.23,40.59,6.81,15.85,28.02,28.55,31.21,48.24,3.19,19.7-6.31,24.22-8.15,24.9-1.84.68-7.67,1.47-11.16-7.75-3.5-9.23-8.96-21.79-8.96-21.79-1.16-3.05-3.19-5.74-6.81-4.33-3.61,1.42-2.69,5.53-1.1,10.83,1.6,5.3,4.17,12.72,3.19,21.68"/>
  <path d="M569.64,101.97c-6.45,29.62-3.31,56.31-.65,68.67,2.65,12.37,10.66,35.14,32.15,35.14s30.41-23.31,32.46-30.6c.99-3.55,2.76-11.19,3.52-22.15,1.24-7.54,3.17-8.08,4.91-8.89,1.8-.83,4.28-2.04,4.21-4.34-.06-1.78-1.1-2.74-3.44-4.09-2.2-1.22-4.52-3.87-6.51-12.88-.55-4.69-1.31-9.63-2.35-14.81-7.04-35.32-21.02-41.95-31.51-42.44-12.63-.59-26.34,6.76-32.79,36.39M610.93,176.63c-3.38,10.25-13.03,16.26-16.14,2.67-2.64-11.48-2.88-24.54-2.7-37.75.19-13.22.1-39.41,4.96-51.71s11.94-9.05,14.33-2.22c8.58,19.8,5.6,70.66-.45,89.01"/>
  <path d="M711.05,139.25c-1.94-.74-4.06-2.27-4.84-9.21-.31-13.79-.52-25.01-.62-30.24h0c-.12-4.4,1.64-7.89,4.32-12.73,2.67-4.84,3.12-6.05,1.42-7.93-1.71-1.87-5.8-1.36-9.04-1-3.24.36-5.52-.27-10.8-1.72-5.29-1.46-8.07-2.18-9.04.8s1.87,5,5.17,9.38c2.47,3.27,2.77,5.44,2.77,7.98h-.06l-.35,78.09c-.09,10.05-1.56,18.5-8.63,18.35-7.06-.15-11.47-6.43-11.59-23.71-.11-16.98-.23-58.38-.26-68.57h0c0-5.46.44-8.21,4.1-13.95,2.01-3.15,4.49-5.33,2.75-9.03-1.74-3.69-9.26-1.81-12.2-1.48-2.93.33-6.78,1.16-15.31-1.47-8.53-2.63-10.18-2.35-11.19-.27-1.01,2.08.25,4.26,4.1,9.05,5.34,6.65,7.01,7.51,6.99,15.6h.02l-.68,27.54-.66,26.9-.04,1.58v.1l-.32,12.91c-1.06,26.56,12.33,43.25,30.87,45.71,16.26,2.14,30.23-4.6,29.25-40.58-.14-5.49-.29-11.04-.42-16.51.22-5.66,2.28-6.4,3.76-7.36,1.69-1.11,4-2.68,3.88-4.87-.1-1.7-1.11-2.45-3.37-3.36"/>
  <path d="M861.78,158.63c-.37-3.68-4.03-43.41-4.03-43.41-.3-3.23-.55-4.87-1.81-6.14-1.25-1.27-3.76-.58-6.63-.27-2.88.31-10.49-2.62-24.46-5.52-13.97-2.9-18.51-4.27-18.51-4.27-7.51-1.63-10.42-4.84-13.06-3.96-2.85.93-2.85,3.28-3.83,9.89l-3.3,32.82c-.85,7.03-.8,9.6,1.61,10.31,2.45.72,4.74-2.67,7.49-10.26,5.92-16.3,8.21-22.64,8.21-22.64,1.66-3.94,3.73-5.72,7.15-4.74,2.48.71,2.52,1.2,2.52,8.03v93.49c0,5.93-.59,6.46-3.65,10.54-3.06,4.08-4.57,5.67-3.69,8.25.89,2.58,2.55,2.54,8.55,3.19,6.01.64,18.25,3.63,21.01,4.1,2.77.46,3.73.35,4.46-.88,1.48-2.46-.63-5.4-3.61-9.8-2.99-4.39-2.4-6.53-2.4-12.09v-28.9l.11.03c.2-8.33,2.68-8.55,4.43-9.18,1.74-.63,4.13-1.54,4-3.83-.1-1.77-1.14-2.83-3.47-4.44-2.26-1.49-4.6-3.94-5.07-13.75v-34.45c0-5.02.27-5.56,2.88-5.15,1.88.29,4.44,2.63,6.67,9.35,3.05,9.18,9.59,33.31,9.59,33.31,1.47,3.43,2.03,8.43,6,8.38,3.72-.05,3.21-4.33,2.84-8.01"/>
  <path d="M996.9,155.81c-7.28-3.22-19.35-7.83-19.35-7.83-4-1.35-5.75.46-4.55,3.95,1.19,3.5,2.79,9.8,2.87,11.32.08,1.51.24,2.65-2.64,15.13-2.87,12.49-5.99,26.31-5.99,26.31,0,0-10.95-38.54-12.15-44.02-1.2-5.49.32-7.23,2.79-10.03,2.48-2.8,4.56-4.66,3.44-7.04-1.12-2.37-3.44-2.36-5.91-2.82-16.71-3.05-21.59-6.84-21.59-6.84-2.88-1.69-5.75-2.74-7.67-.77-2.15,2.19-.4,5.39,2.79,9.95,3.2,4.57,5.12,8.82,6.48,13.84,1.36,5.02,17.03,68.6,17.03,68.6l-.08,24.91c0,5.97.64,8.48-3.68,13.08-4.32,4.6-7.19,8.09-1.76,10.01,5.44,1.91,26.31,7.6,26.31,7.6,8.79,2.43,6.71-3.03,4.63-7.61-2.08-4.58-3.84-9.3-3.84-12.25v-3.34c.49-6.71,2.8-7.07,4.46-7.74,1.78-.72,4.22-1.77,4.09-4.04-.1-1.77-1.17-2.78-3.55-4.25-2.24-1.34-4.43-3.57-5-12.62v-.57l16.95-61.1c.83-2.49,2.16-3.37,4.56-4.59,2.4-1.21,8.64-4.02,1.36-7.24"/>
  <polygon points="316.83 242.24 316.83 255.4 332.74 255.4 332.74 261.85 316.83 261.85 316.83 281.25 309.29 281.25 309.29 235.59 337.81 235.59 337.81 242.24 316.83 242.24"/>
  <polygon points="366.77 281.25 366.77 235.58 395.64 235.58 395.64 242.3 374.31 242.3 374.31 254.23 390.08 254.23 390.08 260.54 374.31 260.54 374.31 274.53 395.64 274.53 395.64 281.25 366.77 281.25"/>
  <path d="M440.8,282.56c-10.83,0-17.21-5.55-17.21-13.37v-2.47h7.47v1.03c0,5.9,4.53,8.3,10.22,8.3s8.02-3.02,8.02-6.93c0-10.15-25.09-5.9-25.09-21.25,0-7.34,5.96-13.58,16.11-13.58s16.8,6.03,16.8,13.37v1.99h-7.48v-1.03c0-4.39-3.35-7.82-9.39-7.82-5.28,0-8.43,2.75-8.43,6.45,0,9.67,25.16,5.76,25.16,21.05,0,8.02-5.83,14.26-16.18,14.26"/>
  <polygon points="505.52 242.31 505.52 281.26 497.91 281.26 497.91 242.31 484.61 242.31 484.61 235.59 518.82 235.59 518.82 242.31 505.52 242.31"/>
  <rect x="547.76" y="235.59" width="7.54" height="45.67"/>
  <polygon points="606.57 281.25 599.71 281.25 583.81 235.58 591.9 235.58 603.42 271.31 614.8 235.58 622.75 235.58 606.57 281.25"/>
  <path d="M672.27,281.26l-3.71-11.66h-15.49l-3.57,11.66h-7.61l15.22-45.67h7.55l15.42,45.67h-7.81ZM660.68,245.19l-5.69,18.31h11.59l-5.9-18.31Z"/>
  <polygon points="708.59 281.25 708.59 235.58 716.13 235.58 716.13 274.53 737.87 274.53 737.87 281.25 708.59 281.25"/>
</svg>