<?xml version="1.0" encoding="UTF-8"?>
<svg fill="#fff" id="Layer_1" data-name="Layer 1" xmlns="http://www.w3.org/2000/svg" viewBox="0 0 283.46 283.46">
  <defs>
    <style>
      .cls-1 {
        fill-rule: evenodd;
      }
    </style>
  </defs>
  <path class="cls-1" d="M131.11,181.92c6.85-17,6.18-35.85-2.01-56.55H43.73c9.84,26.28,7.23,50.02-6.8,71.42,38.44.62,70.51-3.8,94.19-14.87M31.67,204.03h85.37c5.08-5.68,9.13-11.61,12.15-17.79-16.97,9.47-49.41,14.22-95.28,14.88-.72.97-1.46,1.94-2.23,2.91Z"/>
  <g>
    <path d="M180.94,130.41c0,.68-.11,1.58-.34,2.72-.23,1.14-.52,2.05-.87,2.74-.35.69-.74,1.04-1.18,1.04-.31,0-.69-.2-1.12-.6-.44-.4-1-.83-1.71-1.29s-1.6-.89-2.69-1.29c-1.09-.4-2.44-.6-4.06-.6-1.79,0-3.43.36-4.9,1.07-1.48.71-2.8,1.66-3.96,2.83-1.16,1.17-2.18,2.52-3.05,4.05-.87,1.52-1.59,3.11-2.16,4.76-.57,1.65-.99,3.29-1.27,4.92-.28,1.63-.42,3.15-.42,4.56,0,1.7.21,3.18.64,4.47.42,1.28,1.03,2.35,1.83,3.19.8.85,1.78,1.48,2.94,1.91,1.16.42,2.47.63,3.92.63,1.72,0,3.19-.18,4.41-.54,1.22-.36,2.26-.76,3.12-1.2.86-.44,1.57-.84,2.14-1.2.57-.36,1.08-.54,1.54-.54.31,0,.53.12.64.34s.16.55.16.96c0,.17-.02.42-.07.76-.05.34-.11.72-.18,1.14-.07.42-.16.88-.25,1.38-.1.5-.21.96-.33,1.38-.12.42-.26.81-.42,1.16-.16.35-.37.66-.64.93s-.79.61-1.56,1.04c-.78.42-1.72.82-2.83,1.18-1.11.36-2.37.67-3.78.93-1.4.25-2.9.38-4.5.38-2.64,0-5.02-.35-7.13-1.05-2.12-.7-3.91-1.77-5.39-3.19-1.48-1.43-2.61-3.22-3.41-5.37-.8-2.15-1.2-4.67-1.2-7.55,0-2.25.23-4.59.69-7.03.46-2.43,1.15-4.81,2.09-7.13.93-2.32,2.11-4.53,3.54-6.61,1.43-2.08,3.12-3.9,5.06-5.46,1.95-1.56,4.16-2.8,6.64-3.72,2.48-.92,5.23-1.38,8.26-1.38,1.69,0,3.3.18,4.81.53,1.51.35,2.83.82,3.96,1.4,1.12.58,1.91,1.11,2.36,1.58.45.47.67,1.07.67,1.8Z"/>
    <path d="M224.04,142.86c0,1.45-.09,2.99-.27,4.61-.18,1.62-.48,3.27-.91,4.96-.42,1.68-.99,3.35-1.71,5.01-.71,1.66-1.6,3.24-2.67,4.76-1.07,1.51-2.33,2.92-3.79,4.23-1.46,1.31-3.15,2.44-5.06,3.39-1.91.96-4.07,1.7-6.46,2.23-2.4.53-5.25.8-8.57.8h-11.94c-.39,0-.76-.05-1.11-.15-.35-.1-.64-.26-.87-.49-.23-.23-.39-.54-.47-.93-.09-.39-.07-.87.05-1.45l8.21-40.95c.19-1.06.62-1.83,1.27-2.31.65-.47,1.43-.71,2.32-.71h11.33c3.73,0,6.84.36,9.35,1.09,2.51.73,4.6,1.8,6.28,3.23,1.68,1.43,2.94,3.2,3.78,5.32s1.25,4.57,1.25,7.35ZM214.02,143.99c0-1.52-.21-2.94-.62-4.25s-1.08-2.43-2-3.38c-.92-.94-2.1-1.68-3.54-2.21-1.44-.53-3.37-.8-5.79-.8h-4.97l-6.43,31.95h5.01c2.54,0,4.68-.31,6.41-.93s3.26-1.46,4.57-2.54c1.32-1.08,2.45-2.32,3.38-3.74.93-1.42,1.69-2.91,2.29-4.48.59-1.57,1.02-3.18,1.29-4.83.27-1.64.4-3.24.4-4.79Z"/>
    <path d="M253.41,166.42c0,.17-.02.44-.06.82s-.1.81-.18,1.29c-.09.49-.19.98-.33,1.49-.13.51-.29.97-.47,1.4-.18.42-.39.77-.64,1.04-.24.27-.52.4-.84.4h-21.53c-.39,0-.74-.05-1.07-.16s-.59-.29-.8-.55c-.21-.25-.34-.57-.42-.94s-.06-.83.04-1.36l8.57-42.7c.02-.24.13-.46.33-.65.19-.19.49-.35.89-.47.4-.12.91-.21,1.52-.27.62-.06,1.4-.09,2.34-.09s1.68.03,2.29.09c.6.06,1.08.15,1.42.27.34.12.56.28.67.47.11.19.14.41.09.65l-7.55,37.83h14.81c.34,0,.57.13.71.4.13.27.2.62.2,1.05Z"/>
  </g>
  <g>
    <path d="M160.2,196.6c-.24,1.18-.61,2.22-1.11,3.11-.51.89-1.13,1.64-1.89,2.23-.75.6-1.62,1.05-2.59,1.35-.98.3-2.05.45-3.24.45-1.26,0-2.34-.16-3.24-.47-.9-.31-1.61-.77-2.14-1.38-.52-.61-.86-1.37-1.01-2.29-.15-.92-.11-1.98.14-3.19l2.2-10.97c.02-.1.06-.18.14-.26s.19-.14.34-.19c.16-.05.36-.09.6-.12.24-.03.55-.04.92-.04s.66.01.9.04c.24.03.42.07.56.12.13.05.22.11.26.19s.05.16.03.26l-2.2,10.97c-.15.73-.19,1.37-.13,1.9.07.53.23.97.48,1.32.25.35.59.61,1.02.77.43.17.94.25,1.54.25s1.17-.09,1.69-.28c.52-.19.98-.46,1.38-.81.4-.36.74-.79,1.02-1.31.28-.52.49-1.1.62-1.76l2.22-11.06c.02-.1.06-.18.14-.26.07-.08.18-.14.33-.19.15-.05.35-.09.59-.12.25-.03.55-.04.92-.04s.66.01.89.04c.23.03.41.07.54.12.13.05.22.11.26.19s.06.16.04.26l-2.23,11.16Z"/>
    <path d="M176.81,194.22c0,.63-.06,1.3-.17,2.02-.11.71-.29,1.42-.53,2.13-.24.71-.54,1.38-.92,2.03-.37.65-.82,1.22-1.34,1.71s-1.12.89-1.79,1.19c-.67.29-1.42.44-2.25.44s-1.51-.16-2.12-.47c-.62-.31-1.15-.79-1.59-1.43l-.21,1.09c-.04.2-.19.34-.45.43-.26.09-.68.14-1.26.14s-.96-.05-1.17-.14c-.2-.09-.29-.24-.25-.43l3.76-18.79c.02-.09.06-.18.13-.26s.18-.14.33-.19c.15-.05.34-.09.58-.12.23-.03.53-.04.88-.04s.64.01.86.04c.22.03.39.07.52.12s.21.12.25.19.05.16.03.26l-1.01,5.12c-.05.22-.1.45-.16.69s-.12.48-.19.72c-.07.24-.14.47-.21.69-.07.22-.14.42-.21.59.17-.3.42-.61.74-.92.32-.31.68-.59,1.09-.84.41-.25.85-.45,1.32-.6.47-.15.95-.23,1.42-.23.54,0,1.01.07,1.41.21s.75.33,1.04.56c.29.24.54.52.73.84.19.32.34.66.46,1.02.11.36.19.73.24,1.11s.06.75.06,1.12ZM173.11,194.58c0-.24-.02-.49-.05-.74s-.11-.49-.22-.7c-.11-.21-.26-.38-.45-.51-.19-.13-.44-.2-.76-.2-.43,0-.86.13-1.29.38s-.84.6-1.22,1.04-.72.95-1.02,1.53c-.29.58-.5,1.2-.63,1.86l-.4,1.93c.33.52.7.91,1.11,1.16.4.25.87.38,1.41.38.38,0,.73-.09,1.06-.28.32-.19.62-.43.88-.74s.49-.66.69-1.07c.19-.41.36-.84.49-1.29.13-.45.23-.91.3-1.38s.1-.92.1-1.36Z"/>
    <path d="M191.47,192.98c0,.68-.16,1.3-.46,1.85-.31.55-.79,1.02-1.44,1.41-.65.4-1.48.7-2.49.91-1,.21-2.2.31-3.59.31h-1.31c-.04.22-.07.43-.09.65-.02.21-.03.41-.03.59,0,.77.2,1.35.6,1.74s1.04.59,1.93.59c.63,0,1.19-.04,1.69-.14.5-.09.94-.19,1.32-.3.37-.11.69-.21.93-.3.25-.09.43-.14.54-.14s.19.03.24.1c.05.07.07.17.07.31,0,.16-.01.35-.04.56-.03.21-.07.42-.12.62-.05.2-.12.4-.2.58-.08.18-.17.32-.28.41-.11.12-.32.23-.63.34-.31.12-.67.22-1.1.31s-.91.17-1.44.24-1.08.09-1.63.09c-.91,0-1.71-.09-2.39-.29-.68-.19-1.25-.48-1.71-.87s-.8-.89-1.03-1.49c-.23-.61-.34-1.32-.34-2.15,0-.64.06-1.32.18-2.05s.31-1.45.58-2.16c.27-.71.61-1.39,1.03-2.04.42-.65.93-1.22,1.52-1.71.59-.49,1.28-.88,2.06-1.18.78-.29,1.67-.44,2.67-.44.87,0,1.61.1,2.24.31.62.21,1.14.48,1.54.81.4.34.7.72.89,1.16.2.43.29.88.29,1.34ZM187.94,193.25c0-.38-.15-.7-.45-.95-.3-.25-.74-.38-1.31-.38-.48,0-.9.09-1.28.26-.38.17-.71.4-.99.69s-.53.63-.74,1.03c-.21.4-.37.82-.49,1.26h1.2c.76,0,1.4-.05,1.92-.15.51-.1.93-.24,1.24-.41.31-.17.54-.37.68-.61.14-.23.22-.48.22-.75Z"/>
    <path d="M203.15,189.98c0,.07,0,.19-.03.36-.02.17-.05.37-.09.6-.04.23-.09.47-.14.71-.06.24-.12.47-.19.68-.07.21-.15.38-.24.51-.09.13-.19.2-.29.2-.09,0-.17-.02-.26-.05-.09-.03-.18-.07-.29-.1s-.22-.07-.34-.1c-.12-.03-.27-.05-.43-.05-.32,0-.67.12-1.04.37-.37.25-.72.57-1.05.98s-.63.88-.89,1.41c-.26.54-.45,1.1-.56,1.69l-1.14,5.73c-.02.09-.06.18-.14.25s-.18.13-.33.18c-.15.05-.34.08-.58.11-.24.02-.53.03-.87.03s-.64-.01-.86-.03c-.22-.02-.4-.06-.53-.11-.13-.05-.21-.11-.25-.18s-.05-.16-.03-.25l2.54-12.76c.02-.09.06-.18.13-.25s.16-.13.29-.17c.13-.04.3-.08.5-.1.21-.02.45-.03.74-.03s.53.01.72.03c.19.02.33.06.43.1.11.04.17.1.21.17s.04.16.02.25l-.4,2.03c.23-.41.49-.79.79-1.13.3-.34.62-.64.96-.89.34-.25.69-.45,1.05-.59.36-.14.72-.22,1.07-.22.14,0,.29,0,.44.03.15.02.28.04.41.07.13.03.24.06.34.11.1.04.18.09.24.14.06.06.09.15.09.27Z"/>
    <path d="M214.71,202.94c-.04.2-.19.34-.45.43-.26.09-.68.13-1.26.13-.3,0-.54,0-.72-.03-.19-.02-.34-.05-.45-.09-.11-.04-.19-.1-.22-.17s-.04-.16-.02-.26l.4-2.04c-.14.31-.37.63-.68.96-.31.34-.69.65-1.12.92-.43.28-.9.51-1.42.69s-1.05.27-1.61.27c-.76,0-1.4-.13-1.9-.4-.5-.27-.91-.63-1.21-1.08s-.52-.97-.65-1.55c-.13-.58-.19-1.19-.19-1.83,0-.6.06-1.25.17-1.96.11-.71.29-1.42.53-2.12.24-.7.54-1.38.91-2.04.37-.65.82-1.23,1.34-1.74.52-.5,1.11-.91,1.79-1.21.67-.3,1.43-.45,2.28-.45.79,0,1.49.16,2.1.49.61.33,1.14.81,1.6,1.44l.23-1.13c.04-.2.19-.34.45-.43s.68-.13,1.27-.13c.28,0,.52.01.71.03.19.02.34.06.45.1.11.04.18.1.22.17s.05.16.03.25l-2.56,12.78ZM212.93,193.99c-.33-.52-.7-.92-1.11-1.18s-.87-.39-1.41-.39c-.4,0-.77.1-1.1.29-.33.19-.63.45-.89.77-.26.32-.48.69-.68,1.11-.2.42-.36.85-.49,1.31-.13.45-.22.91-.28,1.37s-.09.89-.09,1.28c0,.29.02.56.06.81.04.26.12.49.24.69.11.2.27.36.46.48.19.12.43.18.73.18.42,0,.85-.12,1.29-.38.44-.25.85-.59,1.23-1.03s.72-.94,1.01-1.52c.29-.58.5-1.19.64-1.85l.4-1.93Z"/>
    <path d="M232.38,194.22c0,.63-.06,1.3-.17,2.02-.11.71-.29,1.42-.53,2.13-.24.71-.54,1.38-.92,2.03-.37.65-.82,1.22-1.34,1.71s-1.12.89-1.79,1.19c-.67.29-1.42.44-2.25.44s-1.51-.16-2.12-.47c-.62-.31-1.15-.79-1.59-1.43l-.21,1.09c-.04.2-.19.34-.45.43-.26.09-.68.14-1.26.14s-.96-.05-1.17-.14c-.2-.09-.29-.24-.25-.43l3.76-18.79c.02-.09.06-.18.13-.26s.18-.14.33-.19c.15-.05.34-.09.58-.12.23-.03.53-.04.88-.04s.64.01.86.04c.22.03.39.07.52.12s.21.12.25.19.05.16.03.26l-1.01,5.12c-.05.22-.1.45-.16.69s-.12.48-.19.72c-.07.24-.14.47-.21.69-.07.22-.14.42-.21.59.17-.3.42-.61.74-.92.32-.31.68-.59,1.09-.84.41-.25.85-.45,1.32-.6.47-.15.95-.23,1.42-.23.54,0,1.01.07,1.41.21s.75.33,1.04.56c.29.24.54.52.73.84.19.32.34.66.46,1.02.11.36.19.73.24,1.11s.06.75.06,1.12ZM228.68,194.58c0-.24-.02-.49-.05-.74s-.11-.49-.22-.7c-.11-.21-.26-.38-.45-.51-.19-.13-.44-.2-.76-.2-.43,0-.86.13-1.29.38s-.84.6-1.22,1.04-.72.95-1.02,1.53c-.29.58-.5,1.2-.63,1.86l-.4,1.93c.33.52.7.91,1.11,1.16.4.25.87.38,1.41.38.38,0,.73-.09,1.06-.28.32-.19.62-.43.88-.74s.49-.66.69-1.07c.19-.41.36-.84.49-1.29.13-.45.23-.91.3-1.38s.1-.92.1-1.36Z"/>
    <path d="M245.6,202.94c-.04.2-.19.34-.45.43-.26.09-.68.13-1.26.13-.3,0-.54,0-.72-.03-.19-.02-.34-.05-.45-.09-.11-.04-.19-.1-.22-.17s-.04-.16-.02-.26l.4-2.04c-.14.31-.37.63-.68.96-.31.34-.69.65-1.12.92-.43.28-.9.51-1.42.69s-1.05.27-1.61.27c-.76,0-1.4-.13-1.9-.4-.5-.27-.91-.63-1.21-1.08s-.52-.97-.65-1.55c-.13-.58-.19-1.19-.19-1.83,0-.6.06-1.25.17-1.96.11-.71.29-1.42.53-2.12.24-.7.54-1.38.91-2.04.37-.65.82-1.23,1.34-1.74.52-.5,1.11-.91,1.79-1.21.67-.3,1.43-.45,2.28-.45.79,0,1.49.16,2.1.49.61.33,1.14.81,1.6,1.44l.23-1.13c.04-.2.19-.34.45-.43s.68-.13,1.27-.13c.28,0,.52.01.71.03.19.02.34.06.45.1.11.04.18.1.22.17s.05.16.03.25l-2.56,12.78ZM243.83,193.99c-.33-.52-.7-.92-1.11-1.18s-.87-.39-1.41-.39c-.4,0-.77.1-1.1.29-.33.19-.63.45-.89.77-.26.32-.48.69-.68,1.11-.2.42-.36.85-.49,1.31-.13.45-.22.91-.28,1.37s-.09.89-.09,1.28c0,.29.02.56.06.81.04.26.12.49.24.69.11.2.27.36.46.48.19.12.43.18.73.18.42,0,.85-.12,1.29-.38.44-.25.85-.59,1.23-1.03s.72-.94,1.01-1.52c.29-.58.5-1.19.64-1.85l.4-1.93Z"/>
  </g>
</svg>