<?xml version="1.0" encoding="UTF-8"?>
<svg fill="#fff" id="Layer_1" data-name="Layer 1" xmlns="http://www.w3.org/2000/svg" viewBox="0 0 283.46 283.46">
  <path d="M205.97,138.53l-13.15.04-20.68,63.62-4.9.02.02,7.61,19.21-.06-.02-7.61-6.32.02,5.49-17.03,26.3-.08,5.34,17-6.06.02.02,7.61,20.24-.06-.02-7.61-5.29.02-20.18-63.49ZM199.68,146.41l10.03,31.94-21.79.07,10.34-32h1.42ZM199.28,163.69l-2.94,8.9,5.8-.02-2.86-8.89ZM211.75,131.16l19.67,63.36,7.74-.02.07,22.56-36.09.11-.07-21.66,5.54-.02-1.56-4.89-16.37.05-1.53,4.9,5.28-.02.07,21.66-34.94.11-.07-22.56,7.09-.02,20.81-63.49,24.36-.08Z"/>
  <path d="M147.14,138.74l-22.17.07.02,7.86,5.8-.02.18,55.69-5.8.02.02,7.61,22.17-.07-.02-7.61-5.93.02-.18-55.69,5.93-.02-.02-7.86ZM154.72,131.37l.07,22.43-5.93.02.13,40.99,5.93-.02.07,22.56-37.51.12-.07-22.56,5.93-.02-.13-40.99-5.93.02-.07-22.43,37.51-.12Z"/>
  <path d="M104.37,189.82l-8.64.03.02,7.73-5.14,5.3-16.24.05-5.17-5.27-.15-45.76,5.14-4.66,16.76-.05,4.66,4.63.02,6.45,8.64-.03-.03-8.25-10.48-10.67-24.11.08-10.8,10.73.16,49.12,10.87,11.31,23.07-.07,11.44-11.38-.03-9.28ZM111.95,182.45l.06,20.37-15.55,15.13-30.04.1-15.13-15.42-.18-55.95,15.04-14.61,30.94-.1,14.74,15.17.06,18.43-23.85.08-.03-11.22-11.22.04.13,40.61,11.22-.04-.04-12.5,23.85-.08Z"/>
  <path d="M138.7,80.64c.04.41.09.82.15,1.23.05.31.09.61.14.91.05.3.09.61.13.91.17,2.44.02,5.39-2.87,7.37,1.8-1.48,1.73-3.45,1.95-5.5-.03-.37-.08-.73-.16-1.07-.16-.68-.42-1.28-.75-1.76-.2-.34-.43-.66-.69-.95-.77-.89-1.75-1.6-2.83-2.04.27.45.49.92.66,1.39.17.48.3.97.38,1.47.33,3.74-1.09,7.21-3.05,10.57-.28.48-.57.96-.87,1.45-1.19,1.94-2.76,3.78-4.32,5.65-.39.47-.79.94-1.17,1.41-6.91,7.17-6.9,17.57-1.26,22.88.38.35.78.69,1.2.99,1.2.57,2.54,1.04,3.96,1.39-2.19-2.64-4.61-4.78-3.75-7.41.86-2.63,2.19-5.51,1.22-7.01,1.1.54,3.22.87,3.61,4.47.39,3.6,8.25,5.04,8.37-2.53-.11-2.42-1.38-4.51-.16-7.14,1.4-3.02,3.81-4.49,6.33-5.77-3.19,4.36-1.18,6.85.04,10.11,1.33,3.18,2.93,9.24-.42,12.3-.65.62-1.98,1.72-3.55,2.85.43-.13.86-.26,1.28-.42.49-.18.97-.38,1.45-.6,1.43-.79,3.61-1.78,4.98-3.32.35-.37.68-.74.99-1.1,2.17-3.3,3.55-7.11,3.9-10.74.05-.52.08-1.04.09-1.55-.5-2.63-1.08-4.69-1.08-6.76,0-.42.02-.83.07-1.25.19-.6.31-1.02.41-1.41-.21-1.26,1.1-2.74,1.91-4.22-3.49,2.47-7.37,11.35-8.98,7.41-1.16-2.58,1.17-5.84,3.08-9.29.27-.49.54-.99.77-1.48,1.27-1.56,1.31-4.02.05-5-.85,3.94-4.34,6.41-7.34,8.8-.42.37-.83.76-1.22,1.15-1.18,1.18-2.22,2.46-2.95,3.97-.3.53-.56,1.07-.77,1.6-.65,1.62-.88,3.23-.46,4.7-1.78-1.72-1.27-5.33.28-8.12.22-.4.47-.78.73-1.14.44-.89.96-1.71,1.52-2.49.28-.39.57-.77.85-1.14,3.9-4.85,5.67-10.77,5.7-16.1-.02-.51-.05-1.01-.06-1.51-.12-4.53,1.23-9.52,5.27-12.86-7.21,1.5-13.45,9.89-12.77,16.7"/>
</svg>