<?xml version="1.0" encoding="UTF-8"?>
<svg fill="#fff" id="Layer_1" data-name="Layer 1" xmlns="http://www.w3.org/2000/svg" viewBox="0 0 283.46 283.46">
  <path d="M80.18,181.33c-1.11,0-2.09-.2-2.94-.6-.85-.4-1.51-.97-1.99-1.71-.48-.74-.72-1.63-.72-2.67v-.58h2.67v.58c0,.86.27,1.51.8,1.94.53.43,1.26.65,2.18.65s1.63-.19,2.09-.55c.46-.37.69-.84.69-1.42,0-.4-.11-.72-.34-.97-.23-.25-.56-.45-.99-.61-.43-.16-.96-.3-1.57-.44l-.47-.1c-.99-.22-1.83-.5-2.54-.83-.71-.34-1.25-.78-1.62-1.33-.38-.55-.57-1.26-.57-2.14s.21-1.63.63-2.25c.42-.62,1.01-1.1,1.77-1.44.76-.33,1.65-.5,2.68-.5s1.94.17,2.74.52c.8.35,1.43.87,1.89,1.56.46.69.69,1.56.69,2.6v.62h-2.67v-.62c0-.55-.11-.99-.32-1.33-.21-.34-.52-.58-.91-.74-.4-.16-.87-.24-1.42-.24-.82,0-1.43.15-1.82.46-.39.31-.59.73-.59,1.26,0,.36.09.66.28.9.18.25.46.45.83.62.37.16.84.31,1.42.43l.47.1c1.03.22,1.92.5,2.68.84.76.34,1.35.79,1.78,1.36.42.56.64,1.28.64,2.16s-.22,1.65-.67,2.31c-.44.66-1.08,1.19-1.89,1.56-.82.38-1.78.56-2.89.56"/>
  <polygon points="90.33 181.04 90.33 166.65 99.58 166.65 99.58 169.12 93.05 169.12 93.05 172.55 99.01 172.55 99.01 175.02 93.05 175.02 93.05 178.57 99.71 178.57 99.71 181.04 90.33 181.04"/>
  <path d="M104.41,181.04v-14.39h6.25c.9,0,1.69.16,2.36.47.67.32,1.19.76,1.56,1.34.37.58.56,1.25.56,2.03v.25c0,.86-.21,1.56-.62,2.1-.41.53-.92.92-1.52,1.17v.37c.55.03.97.22,1.27.57s.45.81.45,1.39v4.71h-2.71v-4.32c0-.33-.09-.6-.26-.8-.17-.21-.46-.31-.85-.31h-3.78v5.43h-2.71ZM107.13,173.15h3.25c.64,0,1.15-.17,1.51-.52.36-.35.55-.81.55-1.39v-.21c0-.58-.18-1.04-.53-1.39-.36-.35-.86-.52-1.52-.52h-3.25v4.03Z"/>
  <polygon points="123.18 181.04 123.18 169.12 118.99 169.12 118.99 166.65 130.08 166.65 130.08 169.12 125.89 169.12 125.89 181.04 123.18 181.04"/>
  <path d="M132.32,181.04l3.78-14.39h4.73l3.78,14.39h-2.8l-.78-3.17h-5.14l-.78,3.17h-2.8ZM136.54,175.37h3.86l-1.75-7.01h-.37l-1.75,7.01Z"/>
  <polygon points="149.03 181.04 149.03 166.65 154.19 166.65 157.05 179.19 157.42 179.19 157.42 166.65 160.09 166.65 160.09 181.04 154.93 181.04 152.08 168.5 151.71 168.5 151.71 181.04 149.03 181.04"/>
  <polygon points="165.5 181.04 165.5 166.65 174.75 166.65 174.75 169.12 168.21 169.12 168.21 172.55 174.17 172.55 174.17 175.02 168.21 175.02 168.21 178.57 174.87 178.57 174.87 181.04 165.5 181.04"/>
  <path d="M183.71,181.33c-1.48,0-2.65-.4-3.52-1.21-.87-.81-1.31-1.94-1.31-3.39v-1.36h2.71v1.36c0,.64.18,1.15.53,1.51.36.36.86.54,1.5.54.6,0,1.07-.18,1.41-.53.34-.36.5-.86.5-1.52v-7.6h-2.47v-2.47h6.82v2.47h-1.64v7.6c0,1.49-.4,2.63-1.21,3.42-.81.79-1.92,1.18-3.33,1.18"/>
  <path d="M200.03,181.33c-1.81,0-3.25-.5-4.32-1.49-1.07-.99-1.6-2.42-1.6-4.26v-3.45c0-1.85.53-3.27,1.6-4.26,1.07-.99,2.51-1.49,4.32-1.49s3.25.5,4.32,1.49c1.07.99,1.6,2.42,1.6,4.26v3.45c0,1.85-.53,3.27-1.6,4.26-1.07.99-2.51,1.49-4.32,1.49M200.03,178.9c1.01,0,1.8-.29,2.36-.88.56-.59.84-1.38.84-2.36v-3.62c0-.99-.28-1.77-.84-2.36-.56-.59-1.35-.88-2.36-.88s-1.78.29-2.35.88c-.57.59-.85,1.38-.85,2.36v3.62c0,.99.28,1.78.85,2.36.57.59,1.35.88,2.35.88"/>
  <path d="M87.87,125.75h13.07c8.52,0,12.16,4.69,12.16,10.52,0,4.6-2.28,8.06-7.43,9.29l7.43,11.16h-7.11l-6.7-10.61h-4.97v10.61h-6.47v-30.98ZM94.34,140.87h6.38c4.15,0,5.47-2.1,5.47-4.6s-1.32-4.65-5.47-4.65h-6.38v9.25Z"/>
  <path d="M115.8,141.19c0-8.56,5.78-15.9,15.08-15.9,6.7,0,10.89,3.51,13.3,8.02l-5.6,3.51c-1.78-3.14-4.42-5.65-7.7-5.65-5.33,0-8.2,4.87-8.2,10.02s2.87,10.11,8.2,10.11c3.23,0,6.1-2.19,7.7-5.28l5.6,3.55c-2.42,4.56-6.61,7.61-13.3,7.61-9.29,0-15.08-7.43-15.08-15.99"/>
  <path d="M154.42,125.75v19.18c0,3.46,1.87,6.61,6.42,6.61s6.38-3.14,6.38-6.61v-19.18h6.51v19.13c0,6.83-3.28,12.3-12.89,12.3s-12.89-5.47-12.89-12.3v-19.13h6.47Z"/>
  <rect x="178.98" y="125.75" width="6.51" height="30.98"/>
  <polygon points="188.59 131.35 188.59 125.75 217.19 125.75 217.19 131.35 206.17 131.35 206.17 156.73 199.66 156.73 199.66 131.35 188.59 131.35"/>
  <path d="M217.74,141.24c0-8.97,6.38-15.94,15.53-15.94s15.53,6.97,15.53,15.94-6.38,15.94-15.53,15.94-15.53-6.97-15.53-15.94M241.88,141.24c0-5.69-3.28-10.07-8.61-10.07s-8.66,4.42-8.66,10.07,3.33,10.11,8.66,10.11,8.61-4.51,8.61-10.11"/>
  <path d="M57.37,115.94c5.52,1.21,9.89,4.15,13.16,8.75.05.08.11.16.16.24.01.02,0,.06.01.16-.18,0-.36,0-.55,0-1.3,0-2.52.26-3.64.95-.93.57-1.94.82-3.03.87-.97.04-1.84-.21-2.57-.83-.69-.58-1.32-1.24-1.97-1.87-.75-.73-1.45-1.53-2.26-2.18-2.95-2.36-6.77-2.42-9.85-.22-2.08,1.48-3.31,3.56-4.13,5.92-.81,2.33-1.13,4.75-1.21,7.21-.12,3.36.06,6.7,1.01,9.96.58,1.99,1.45,3.84,2.97,5.3,1.45,1.39,3.13,2.1,5.21,2.19,2.83.12,5.05-.97,7.02-2.84.86-.82,1.71-1.66,2.56-2.49,1.73-1.67,3.95-1.44,5.4-.34,1.5,1.14,3.2,1.39,5,1.34.14,0,.28,0,.43-.01.01,0,.03,0,.04.01-3.21,5.82-10.88,10.9-19.77,10.24-10.58-.78-17.89-8.83-19.42-16.86,2.7-.88,3.93-2.33,3.89-4.59-.04-2.19-1.33-3.65-3.96-4.42.16-.62.29-1.25.5-1.86,2.91-8.4,8.75-13.38,17.51-14.91.54-.1,4.62-.46,7.46.27"/>
  <path d="M80.06,140.34c-.15.03-.3.09-.45.09-7.53,0-15.06,0-22.59,0-.11,0-.22-.01-.36-.02v-.63h.5c7.45,0,14.9,0,22.35,0,.18,0,.37.05.55.08v.48Z"/>
  <rect x="56.66" y="133.2" width="23.41" height=".62"/>
  <rect x="56.66" y="134.85" width="23.41" height=".62"/>
  <rect x="56.66" y="136.51" width="23.41" height=".62"/>
  <rect x="56.66" y="138.17" width="23.41" height=".62"/>
  <path d="M76.17,125.75v6.41h3.9v.62h-3.9v1.04h3.9v.62h-3.9v1.04h3.9v.62h-3.9v1.04h3.9v.62h-3.9v1.04h3.9v.62h-3.9v.99c1.11,0,2.23,0,3.34,0,.18,0,.37.05.55.08v.48c-.15.03-.3.09-.45.09-1.15,0-2.3,0-3.44,0v15.68h6.51v-30.98h-6.51Z"/>
</svg>