<?xml version="1.0" encoding="UTF-8"?>
<svg fill="#fff" id="Layer_1" data-name="Layer 1" xmlns="http://www.w3.org/2000/svg" viewBox="0 0 283.46 283.46">
  <defs>
    <style>
      .cls-1 {
        fill-rule: evenodd;
      }
    </style>
  </defs>
  <path class="cls-1" d="M239.03,153.47l10.25-7.33-10.25-9.59v16.93ZM244.11,129.2l14.39,13.76c-2.93,1.89-5.91,3.91-8.91,6.01-3.02,2.11-6.36,4.56-9.98,7.29v10.22l8.6,3.51,7.14-4.29,1.63,1.67c-2.42,1.46-4.95,3.07-7.56,4.82-2.6,1.74-5.33,3.66-8.14,5.74-2.24-1.44-4.67-2.65-7.24-3.61-2.59-.97-5.36-1.72-8.27-2.21,1.17-.79,2-1.75,2.48-2.88.48-1.15.73-2.71.73-4.66v-27.14c2.16-.78,4.48-1.85,6.93-3.17,2.45-1.33,5.19-3.02,8.18-5.05h.01ZM204.48,136.56h-3.83v-1.81l14.74-17.48v13.85h11.07v5.33h-11.07v29.35l5.51,4.1,3.02-2.2,1.59,1.58c-1.42,1.17-2.95,2.44-4.55,3.82-1.62,1.38-3.44,3-5.46,4.82-2.32-2.09-4.66-3.79-7-5.11-2.33-1.32-4.77-2.33-7.29-3.01,1.17-.78,2-1.75,2.52-2.87.51-1.15.76-2.71.76-4.66v-25.72ZM175.91,165.26c2.2.85,4.28,1.62,6.22,2.3,1.94.67,3.84,1.33,5.64,1.9v-27.54c-1.79-.54-3.68-1.21-5.63-1.95-1.94-.76-4.04-1.61-6.24-2.55v27.84ZM181.98,178.04c-2.89-2-6.03-3.7-9.4-5.09-3.36-1.4-6.88-2.46-10.51-3.14,1.2-.81,2.05-1.8,2.51-2.93.46-1.15.7-2.85.7-5.1v-24.37c3.17-.7,6.05-1.74,8.59-3.07,2.54-1.32,4.92-3.06,7.09-5.14,3.37,2.15,6.51,3.85,9.41,5.09,2.9,1.23,5.53,2,7.85,2.25v33.66c-3.34.87-6.36,1.96-9.05,3.26-2.69,1.3-5.11,2.84-7.21,4.56l.02.02ZM138.93,129.2c2.27,1.11,3.97,2.32,5.03,3.59,1.06,1.29,1.66,2.84,1.76,4.63l10.74-8.23,7.48,7.82-7.6,6.12-6.34-6.12-4.16,2.89v26.07l5.79,4.01,3.08-2.29,1.63,1.56c-1.82,1.5-3.59,2.96-5.25,4.35-1.66,1.4-3.3,2.85-4.92,4.31-1.95-1.85-4.11-3.47-6.51-4.8-2.39-1.32-5.07-2.45-8.01-3.33,1.17-.78,2.01-1.74,2.51-2.88.51-1.14.76-2.69.76-4.64v-20.36c0-.96-.18-1.81-.54-2.49-.36-.68-.91-1.29-1.66-1.81l-1.86,1.32-1.75-1.61,9.8-8.12ZM106.14,165.26c2.2.85,4.28,1.62,6.23,2.3,1.94.67,3.84,1.33,5.64,1.9v-27.54c-1.8-.54-3.68-1.21-5.63-1.95-1.94-.76-4.04-1.61-6.24-2.55v27.84ZM112.21,178.04c-2.89-2-6.03-3.7-9.39-5.09-3.36-1.4-6.88-2.46-10.52-3.14,1.2-.81,2.05-1.8,2.51-2.93.47-1.15.7-2.85.7-5.1v-24.37c3.17-.7,6.04-1.74,8.59-3.07,2.54-1.32,4.92-3.06,7.09-5.14,3.37,2.15,6.51,3.85,9.41,5.09,2.9,1.23,5.53,2,7.85,2.25v33.66c-3.33.87-6.36,1.96-9.05,3.26-2.7,1.3-5.11,2.84-7.21,4.56l.02.02ZM46.25,158.96c.48-.59.82-1.33,1.03-2.2.21-.89.32-2.15.32-3.77v-24.65l22.48-16.44c3.71,1.86,7.45,3.29,11.19,4.26,3.74.98,7.39,1.47,10.92,1.47h.55l-10.23,9.68c-1.99-.74-4.3-1.54-6.87-2.39-2.59-.85-5.53-1.76-8.83-2.7l.04,46.67c.72.09,1.48.17,2.27.21.81.05,1.64.08,2.51.08,3.93,0,7.72-.72,11.34-2.15,3.62-1.43,7.39-3.72,11.28-6.85l.79.39c-3.44,6.16-7.7,10.67-12.76,13.54-5.06,2.86-11.3,4.31-18.67,4.31-9.81,0-17.91-2.79-24.23-8.36-6.33-5.57-9.5-12.71-9.5-21.37,0-7.11,2.11-13.43,6.32-18.94,4.21-5.5,9.9-9.39,17.05-11.64l.22.39c-4.75,3.15-8.23,6.58-10.41,10.22-2.19,3.64-3.29,7.83-3.29,12.52,0,3.73.54,7.06,1.6,9.99,1.06,2.93,2.69,5.52,4.85,7.73h.01ZM64.18,168.49v-47.88l-4.71,3.43v18.62c0,3.51-.85,6.64-2.53,9.32-1.69,2.68-4.65,5.55-8.84,8.59,2.07,2.02,4.46,3.71,7.17,5.04,2.72,1.33,5.7,2.3,8.92,2.88h0Z"/>
</svg>