<?xml version="1.0" encoding="UTF-8"?>
<svg xmlns="http://www.w3.org/2000/svg" xmlns:xlink="http://www.w3.org/1999/xlink" viewBox="0 0 704 704">
  <defs>
    <style>
      .cls-1 {
        fill: none;
      }

      .cls-2 {
        fill-rule: evenodd;
      }

      .cls-2, .cls-3 {
        fill: #fff;
      }

      .cls-4 {
        clip-path: url(#clippath-1);
      }

      .cls-5 {
        fill: #fff;
      }

      .cls-6 {
        clip-path: url(#clippath);
      }
    </style>
    <clipPath id="clippath">
      <rect class="cls-1" x="-734.22" width="704" height="704"/>
    </clipPath>
    <clipPath id="clippath-1">
      <rect class="cls-1" width="704" height="704"/>
    </clipPath>
  </defs>
  <g id="Layer_9" data-name="Layer 9">
    
    
  </g>
  <g id="Layer_13" data-name="Layer 13">
    <g>
      <path class="cls-2" d="M190.17,438.84c-9.15-7.01-11.1-22.11-4.23-32.24,1.07-1.58,2.34-3.06,3.69-4.42,13.59-13.64,27.23-27.24,40.85-40.86.58-.59,1.14-1.21,2.1-2.24-3.96-3.83-7.9-7.55-11.74-11.36-10.21-10.16-20.46-20.27-30.52-30.58-2.47-2.53-4.61-5.54-6.27-8.68-2.4-4.5-1.84-9.52-1.68-14.46.16-5.06,3.29-8.64,5.69-12.58,1.05-1.72,2.35-1.98,3.99-.29,5,5.15,10.13,10.16,15.19,15.23,14.99,15.04,30.01,30.06,44.96,45.15,9.87,9.96,9.87,25.59,0,35.48-20.05,20.09-40.15,40.15-60.23,60.2-.58.58-1.21,1.11-1.79,1.64"/>
      <path class="cls-2" d="M158.71,420.71c-8.52-6.43-9.03-19.56-1.37-27.61,5.43-5.7,11.09-11.17,16.65-16.74,5.09-5.09,10.19-10.17,15.29-15.26.46-.46.85-.99,1.56-1.83-3.35-3.26-6.66-6.42-9.92-9.66-7.59-7.55-15.2-15.1-22.71-22.75-1.67-1.7-3.22-3.69-4.29-5.81-3.47-6.78-2.01-13.27,1.76-19.45.72-1.19,1.71-2.22,2.7-3.48.73.68,1.34,1.22,1.91,1.79,15.06,15.1,30.12,30.19,45.15,45.31,8.46,8.51,8.32,20.17-.14,28.58-14.67,14.58-29.25,29.21-43.87,43.85-.95.94-1.79,1.99-2.73,3.06"/>
      <path class="cls-2" d="M133.41,404.22c-6.05-4.57-6.42-13.91-.97-19.63,3.86-4.05,7.88-7.94,11.84-11.9,3.62-3.62,7.25-7.23,10.87-10.85.32-.32.6-.7,1.11-1.3-2.38-2.32-4.73-4.57-7.05-6.87-5.4-5.37-10.81-10.74-16.14-16.18-1.19-1.21-2.29-2.62-3.05-4.13-2.47-4.82-1.43-9.43,1.25-13.83.51-.84,1.21-1.58,1.92-2.48.52.48.95.86,1.36,1.27,10.71,10.73,21.41,21.46,32.1,32.21,6.02,6.05,5.92,14.34-.1,20.32-10.43,10.36-20.8,20.77-31.19,31.17-.67.67-1.27,1.42-1.94,2.17"/>
      <path class="cls-3" d="M459.43,454.31c0,.8-.14,1.59-.42,2.38-.28.78-.75,1.49-1.4,2.11-.65.62-1.5,1.13-2.54,1.52-1.04.39-2.33.59-3.85.59-1.2,0-2.26-.06-3.17-.18-.91-.12-1.75-.28-2.51-.48-.16-.04-.3-.11-.42-.21-.12-.1-.18-.23-.18-.39v-2.95c0-.22.05-.37.15-.45.1-.08.23-.12.39-.12h.09c.3.02.72.05,1.25.1.53.05,1.08.09,1.64.12.56.03,1.1.06,1.61.09.51.03.92.04,1.22.04,1.05,0,1.75-.17,2.12-.51.37-.34.56-.87.56-1.6,0-.44-.14-.82-.41-1.13-.27-.31-.8-.7-1.58-1.16l-4.15-2.47c-.7-.42-1.28-.85-1.73-1.3-.45-.44-.81-.9-1.09-1.38-.27-.48-.46-.98-.57-1.49-.11-.51-.17-1.04-.17-1.58,0-.82.12-1.59.38-2.32.25-.72.68-1.34,1.28-1.87.6-.52,1.4-.93,2.38-1.23.98-.3,2.21-.45,3.67-.45.54,0,1.13.02,1.76.06.64.04,1.24.09,1.82.15.58.06,1.12.13,1.62.21.5.08.89.16,1.17.24.12.04.23.1.32.18.09.08.13.2.13.36v3.04c0,.14-.04.26-.11.36-.07.1-.2.15-.4.15h-.06c-.2-.02-.55-.05-1.05-.08-.5-.03-1.06-.07-1.68-.11-.62-.04-1.25-.08-1.89-.11-.64-.03-1.23-.04-1.75-.04-.86,0-1.47.13-1.82.39-.35.26-.53.66-.53,1.21,0,.42.14.77.41,1.03.27.27.81.63,1.61,1.07l3.85,2.08c1.57.84,2.64,1.76,3.21,2.77.57,1,.86,2.12.86,3.34M433.34,442.72c-.04-.16-.08-.27-.12-.34-.04-.07-.13-.11-.27-.11-.22,0-.36.15-.42.45l-1.84,8.31h4.48l-1.84-8.31ZM442.43,460.15c0,.32-.17.48-.51.48h-4.21c-.16,0-.29-.05-.39-.15-.1-.1-.17-.23-.21-.39l-1.08-4.93h-6.17l-1.08,4.93c-.04.16-.11.29-.21.39-.1.1-.23.15-.39.15h-4.21c-.34,0-.51-.16-.51-.48,0-.02,0-.04.01-.06.01-.02.02-.05.02-.09l4.48-18.66c.18-.72.44-1.31.78-1.75.34-.44.74-.78,1.19-1.01.45-.23.94-.39,1.46-.47.52-.08,1.05-.12,1.57-.12s1.04.04,1.55.12c.51.08.99.24,1.44.47.45.23.85.57,1.19,1.01.34.44.6,1.02.79,1.75l4.48,18.66s0,.07.02.09c.01.02.02.04.02.06ZM415.89,445.04c0-.92-.34-1.6-1.01-2.03-.68-.43-1.64-.65-2.89-.65-.1,0-.27,0-.5.02-.23.01-.46.02-.7.03-.24.01-.46.02-.67.03-.21.01-.36.01-.46.01v5.78c.08,0,.22,0,.42.02.2.01.41.02.64.03.23.01.44.02.64.02h.42c.77,0,1.42-.05,1.95-.16.53-.11.95-.28,1.27-.5.31-.22.55-.52.68-.89.14-.37.21-.81.21-1.31v-.39ZM421.78,460.27c0,.24-.15.36-.45.36h-4.63c-.16,0-.29-.06-.37-.18-.08-.12-.16-.26-.24-.42l-4-7.61-.33.03c-.32,0-.68-.01-1.09-.03-.41-.02-.75-.03-1.03-.03v7.64c0,.16-.06.3-.18.42-.12.12-.26.18-.43.18h-3.93c-.16,0-.31-.06-.43-.18-.12-.12-.18-.26-.18-.42v-20.19c0-.52.11-.87.33-1.06.22-.18.56-.31,1.02-.39.34-.06.75-.11,1.23-.15.48-.04.99-.08,1.53-.12.54-.04,1.1-.07,1.67-.09.57-.02,1.13-.03,1.67-.03,1.28,0,2.48.11,3.58.35,1.1.23,2.06.62,2.87,1.17.81.55,1.45,1.28,1.91,2.18.46.9.69,2.01.69,3.34v.39c0,1.6-.37,2.9-1.12,3.88-.75.98-1.67,1.7-2.79,2.14l4.57,8.49c.06.12.09.23.09.33ZM400.38,452.23c0,1.71-.23,3.12-.69,4.24-.46,1.12-1.08,2.01-1.87,2.66-.78.65-1.7,1.11-2.76,1.37-1.05.26-2.18.39-3.38.39s-2.33-.13-3.39-.39c-1.05-.26-1.97-.72-2.75-1.37-.78-.65-1.4-1.54-1.85-2.66-.45-1.12-.68-2.54-.68-4.24v-13.39c0-.16.06-.29.18-.4.12-.11.26-.17.42-.17h3.94c.16,0,.3.06.42.17.12.11.18.24.18.4v13.39c0,1.52.25,2.63.75,3.33.5.69,1.43,1.04,2.77,1.04.68,0,1.25-.08,1.7-.26.45-.17.81-.43,1.08-.78.27-.35.47-.8.59-1.36.12-.55.18-1.21.18-1.97v-13.39c0-.16.06-.29.18-.4.12-.11.26-.17.42-.17h3.91c.16,0,.31.06.44.17.13.11.19.24.19.4v13.39ZM380.25,441.94c0,.16-.06.3-.19.41-.13.11-.28.17-.44.17h-4.88v17.51c0,.16-.06.3-.18.42-.12.12-.26.18-.42.18h-3.94c-.16,0-.3-.06-.42-.18-.12-.12-.18-.26-.18-.42v-17.51h-4.91c-.16,0-.3-.06-.42-.17-.12-.11-.18-.25-.18-.41v-3.1c0-.16.06-.29.18-.4.12-.11.26-.17.42-.17h14.93c.16,0,.31.06.44.17.13.11.19.24.19.4v3.1ZM353.68,442.72c-.04-.16-.08-.27-.12-.34-.04-.07-.13-.11-.27-.11-.22,0-.36.15-.42.45l-1.84,8.31h4.48l-1.84-8.31ZM362.77,460.15c0,.32-.17.48-.51.48h-4.21c-.16,0-.29-.05-.39-.15-.1-.1-.17-.23-.21-.39l-1.08-4.93h-6.17l-1.08,4.93c-.04.16-.11.29-.21.39-.1.1-.23.15-.39.15h-4.22c-.34,0-.51-.16-.51-.48,0-.02,0-.04.01-.06.01-.02.02-.05.02-.09l4.48-18.66c.18-.72.44-1.31.78-1.75.34-.44.74-.78,1.19-1.01.45-.23.94-.39,1.46-.47.52-.08,1.04-.12,1.56-.12s1.04.04,1.55.12c.51.08.99.24,1.44.47.45.23.85.57,1.19,1.01.34.44.6,1.02.78,1.75l4.48,18.66s0,.07.02.09c.01.02.02.04.02.06ZM341.1,460.21c0,.16-.06.27-.17.33-.11.06-.23.09-.35.09h-3.97c-.14,0-.26-.06-.35-.18-.09-.12-.13-.26-.13-.42v-12.55c0-.16-.05-.24-.15-.24-.08,0-.16.07-.24.21l-2.71,4.97c-.2.34-.5.51-.9.51h-2.4c-.4,0-.7-.17-.9-.51l-2.71-4.97c-.08-.14-.16-.21-.24-.21-.1,0-.15.08-.15.24v12.55c0,.16-.05.3-.14.42-.09.12-.2.18-.34.18h-3.97c-.12,0-.24-.03-.35-.09-.11-.06-.16-.17-.16-.33v-20.92c0-.32.1-.57.3-.75.2-.18.46-.27.78-.27h2.83c.6,0,1.05.27,1.32.81l4.6,8.58c.14.26.25.39.33.39.1,0,.21-.13.33-.39l4.6-8.58c.28-.54.72-.81,1.33-.81h2.83c.32,0,.58.1.78.29.2.19.3.45.3.77v20.89ZM311.66,445.04c0-.92-.33-1.6-1.01-2.03-.68-.43-1.64-.65-2.89-.65-.1,0-.27,0-.5.02-.22.01-.46.02-.69.03-.24.01-.46.02-.67.03-.2.01-.36.01-.46.01v5.78c.08,0,.22,0,.42.02.2.01.41.02.64.03.23.01.44.02.64.02h.41c.77,0,1.43-.05,1.95-.16.53-.11.95-.28,1.27-.5.32-.22.55-.52.68-.89.14-.37.21-.81.21-1.31v-.39ZM317.56,460.27c0,.24-.15.36-.45.36h-4.63c-.16,0-.28-.06-.37-.18-.08-.12-.16-.26-.24-.42l-4-7.61-.33.03c-.31,0-.68-.01-1.09-.03-.41-.02-.75-.03-1.03-.03v7.64c0,.16-.06.3-.18.42-.12.12-.27.18-.43.18h-3.93c-.16,0-.31-.06-.43-.18-.12-.12-.18-.26-.18-.42v-20.19c0-.52.11-.87.33-1.06.22-.18.56-.31,1.02-.39.34-.06.75-.11,1.23-.15.48-.04,1-.08,1.54-.12.54-.04,1.1-.07,1.67-.09.57-.02,1.13-.03,1.67-.03,1.29,0,2.48.11,3.58.35,1.1.23,2.06.62,2.87,1.17.81.55,1.45,1.28,1.91,2.18.46.9.69,2.01.69,3.34v.39c0,1.6-.37,2.9-1.12,3.88-.75.98-1.68,1.7-2.79,2.14l4.57,8.49c.06.12.09.23.09.33ZM291.44,447.64c0-1.83-.31-3.15-.92-3.96-.61-.81-1.56-1.21-2.82-1.21s-2.21.4-2.81,1.21c-.61.81-.91,2.13-.91,3.96v3.6c0,1.83.3,3.15.91,3.96.6.81,1.54,1.21,2.81,1.21s2.21-.4,2.82-1.21c.62-.81.92-2.13.92-3.96v-3.6ZM296.58,451.24c0,1.74-.23,3.23-.69,4.45-.46,1.22-1.1,2.22-1.9,2.99-.8.77-1.74,1.34-2.83,1.68-1.09.35-2.25.53-3.49.53s-2.41-.18-3.49-.53c-1.08-.35-2.03-.91-2.83-1.68-.8-.77-1.43-1.77-1.9-2.99-.46-1.22-.69-2.71-.69-4.45v-3.58c0-1.74.23-3.23.69-4.45.46-1.22,1.09-2.22,1.9-2.99.8-.77,1.74-1.34,2.83-1.69,1.08-.35,2.25-.53,3.49-.53s2.4.18,3.49.53c1.08.35,2.03.92,2.83,1.69.8.77,1.44,1.77,1.9,2.99.46,1.22.69,2.71.69,4.45v3.58ZM275.49,441.82c0,.16-.06.3-.18.42-.12.12-.26.18-.42.18h-6.11c-.7,0-1.2.15-1.49.44-.29.29-.44.82-.44,1.61v2.71h7.8c.16,0,.3.06.42.18.12.12.18.26.18.42v2.86c0,.16-.06.3-.18.42-.12.12-.26.18-.42.18h-7.8v8.79c0,.16-.06.3-.18.42-.12.12-.27.18-.43.18h-3.94c-.16,0-.31-.06-.43-.18-.12-.12-.18-.26-.18-.42v-15.56c0-1.37.2-2.47.61-3.31.4-.84.94-1.5,1.62-1.96.67-.46,1.46-.77,2.36-.94.9-.16,1.83-.24,2.79-.24.82,0,1.54.02,2.14.05.6.03,1.13.06,1.6.1.46.04.86.08,1.19.12.33.04.63.08.89.12.4.06.6.26.6.6v2.8Z"/>
      <path class="cls-2" d="M397.39,359.6l24.82-42.53v83.06l-24.82-40.53ZM461.39,353.9c-1.67-.06-3.23-.13-4.66-.19-1.43-.06-2.39-.09-2.89-.09v-38.2c.62,0,1.61-.03,2.99-.09,1.36-.06,2.85-.12,4.47-.19,1.61-.06,3.13-.12,4.56-.19,1.43-.06,2.45-.1,3.07-.1,7.82,0,13.76,1.4,17.79,4.21,4.04,2.81,6.06,7.58,6.06,14.32v1.68c0,6.37-1.9,11.11-5.68,14.23-3.78,3.12-9.84,4.68-18.17,4.68h-2.89c-1.43,0-2.98-.03-4.66-.09ZM279.43,328.33c0-4.87.9-8.21,2.71-10.02,1.81-1.81,4.9-2.71,9.27-2.71h38.01c1,0,1.87-.38,2.62-1.12.12-.12.21-.25.31-.37l26.83,43.62-27.05,46.73s-.06-.07-.09-.11c-.75-.75-1.62-1.13-2.62-1.13h-38.01c-4.38,0-7.46-.9-9.27-2.71-1.81-1.81-2.71-5.15-2.71-10.02v-19.85h48.49c1,0,1.87-.38,2.62-1.12.75-.75,1.12-1.62,1.12-2.62v-17.79c0-1-.37-1.87-1.12-2.62-.75-.75-1.62-1.12-2.62-1.12h-48.49v-17.04ZM524.82,335.07v-1.68c0-8.86-1.6-16.16-4.78-21.9-3.18-5.75-7.4-10.37-12.65-13.86-5.24-3.49-11.23-5.93-17.97-7.3-6.74-1.38-13.67-2.06-20.78-2.06-6.74,0-62.83,1.69-62.83,1.69-1,0-1.91.38-2.72,1.12-.81.75-1.47,1.56-1.96,2.43l-20.97,37.82-23.22-37.82c-.62-.87-1.31-1.69-2.06-2.43-.75-.75-1.62-1.12-2.63-1.12h-28.36c-2.06-.25-4.52-.5-7.39-.75-2.88-.25-6.18-.47-9.93-.66-3.74-.19-8.18-.28-13.29-.28-5.99,0-11.78.5-17.35,1.5-5.58,1-10.47,2.93-14.67,5.8-4.21,2.87-7.57,6.93-10.08,12.17-2.51,5.24-3.76,12.11-3.76,20.59v2.93c4.53,4.55,9.08,9.09,13.6,13.65,8.05,8.12,8.04,20.87,0,28.93-4.52,4.53-9.06,9.05-13.59,13.58v3.07c0,8.49,1.25,15.36,3.76,20.6,2.51,5.24,5.87,9.33,10.08,12.26,4.2,2.94,9.06,4.9,14.58,5.9,5.52,1,11.27,1.5,17.27,1.5,10.11,0,17.88-.28,23.31-.85,2.8-.29,5.29-.57,7.51-.84h26.27c1,0,1.87-.34,2.63-1.03.75-.69,1.43-1.59,2.06-2.72l21.9-38.57,24.34,39.51c.62,1,1.28,1.72,1.96,2.15.69.44,1.66.66,2.9.66h44.11c1,0,1.87-.38,2.62-1.12.74-.75,1.12-1.63,1.12-2.62v-45.5c2.37.13,4.93.25,7.68.38,2.75.13,5.24.19,7.49.19,6.99,0,13.82-.72,20.5-2.16,6.67-1.43,12.64-3.9,17.88-7.39,5.25-3.49,9.46-8.15,12.65-13.95,3.18-5.81,4.78-13.07,4.78-21.82Z"/>
      <path class="cls-3" d="M417.75,266.78l-9.76,23.68s33.88,2.16,60.56,7.95c26.65,5.77,55.55,25.65,55.55,25.65l5.32-32.63s-25.38-21.38-53.85-27.56c-28.49-6.17-57.81,2.91-57.81,2.91"/>
      <path class="cls-3" d="M556,289.18c-2.63-.57-4.31-3.17-3.74-5.79.57-2.62,3.18-4.31,5.8-3.74,2.66.57,4.3,3.17,3.73,5.8-.57,2.62-3.13,4.3-5.79,3.73M561.78,272.23l-.64,2.96-5.24-4.59c2.48-.97,6.7-2.13,5.89,1.63ZM562.79,291.3l12.62-3.62-9.95-8.68.64-2.96s6.67-15.43-13.2-10.91c-1.02.28-1.62.7-1.94,1.14l-65.48-57.4-109.95,34.79,33.31,24.77,1.18-5.44s34.75-10.68,66.53-3.8c31.75,6.88,60.05,30.72,60.05,30.72l-2.06,9.5,22.76-6.52-9.6,44.33-6.79-1.47-3.41,15.75,10.39-4.27,8.66,8.4,3.42-15.76-7.33-1.59,10.18-46.98h-.03Z"/>
    </g>
  </g>
</svg>