<?xml version="1.0" encoding="UTF-8"?>
<svg xmlns="http://www.w3.org/2000/svg" xmlns:xlink="http://www.w3.org/1999/xlink" viewBox="0 0 704 704">
  <defs>
    <style>
      .cls-1 {
        fill: none;
      }

      .cls-2 {
        fill-rule: evenodd;
      }

      .cls-2, .cls-3 {
        fill: #fff;
      }

      .cls-4 {
        clip-path: url(#clippath-1);
      }

      .cls-5 {
        fill: #fff;
      }

      .cls-6 {
        clip-path: url(#clippath);
      }
    </style>
    <clipPath id="clippath">
      <rect class="cls-1" x="-736" y="8.3" width="704" height="704"/>
    </clipPath>
    <clipPath id="clippath-1">
      <rect class="cls-1" width="704" height="704"/>
    </clipPath>
  </defs>
  <g id="Layer_9" data-name="Layer 9">
    
    
  </g>
  <g id="Layer_12" data-name="Layer 12">
    <g>
      <path class="cls-3" d="M548.97,289.55c-3.69-6.56-8.56-11.83-14.61-15.79-6.03-3.96-12.92-6.71-20.66-8.23-7.74-1.52-15.69-2.26-23.85-2.2-7.73.05-72.04,2.42-72.04,2.42-1.15,0-2.19.44-3.11,1.31-.93.87-1.67,1.8-2.23,2.81l-23.76,43.54-26.92-43.19c-.72-1-1.52-1.92-2.38-2.78-.87-.85-1.87-1.27-3.01-1.27l-32.53.22c-2.36-.27-5.19-.53-8.48-.8-3.31-.27-7.1-.49-11.39-.68-4.3-.18-9.38-.26-15.25-.22-6.87.05-13.5.67-19.89,1.85-6.39,1.19-11.99,3.45-16.78,6.77-4.81,3.32-8.62,8-11.47,14.03-2.83,6.03-4.22,13.92-4.15,23.65l.02,3.36c5.23,5.18,10.48,10.35,15.7,15.55,9.29,9.25,9.38,23.87.21,33.18-5.15,5.23-10.32,10.45-15.48,15.68l.02,3.51c.07,9.74,1.56,17.6,4.47,23.6,2.92,5.99,6.8,10.66,11.65,13.98,4.85,3.34,10.44,5.55,16.77,6.66,6.33,1.1,12.94,1.63,19.81,1.59,11.6-.08,20.51-.46,26.73-1.15,3.21-.36,6.07-.7,8.61-1.03l30.13-.2c1.14,0,2.14-.41,3-1.2.86-.79,1.63-1.84,2.34-3.13l24.82-44.41,28.23,45.12c.72,1.14,1.48,1.96,2.26,2.45.79.5,1.91.74,3.33.73l22.88-.16,11.26-.08,16.44-.11c1.14,0,2.14-.45,3-1.31.84-.87,1.27-1.87,1.26-3.02l-.35-52.18c2.72.12,5.66.25,8.81.37,3.15.12,6.02.18,8.59.16,8.01-.05,15.85-.93,23.49-2.63,7.64-1.7,14.46-4.57,20.44-8.62,5.99-4.05,10.79-9.42,14.39-16.1,3.6-6.68,5.38-15.03,5.31-25.06v-1.93c-.08-10.17-1.97-18.53-5.66-25.09M334.2,397.64s-.06-.08-.1-.12c-.87-.86-1.87-1.28-3.01-1.27l-43.59.3c-5.02.03-8.57-.98-10.65-3.04-2.09-2.06-3.15-5.89-3.19-11.47l-.15-22.76,55.61-.38c1.14,0,2.14-.44,2.99-1.3.86-.87,1.28-1.87,1.27-3.02l-.14-20.4c0-1.14-.44-2.14-1.31-3-.86-.85-1.87-1.27-3.01-1.27l-55.62.38-.13-19.54c-.04-5.58.97-9.42,3.04-11.51,2.06-2.08,5.59-3.15,10.61-3.18l43.59-.29c1.14,0,2.14-.44,2.99-1.31.13-.14.24-.28.35-.43l31.11,49.82-30.66,53.8ZM437.46,391.97l-28.78-46.28,28.14-48.98.64,95.26ZM517.91,316.81c.05,7.3-2.09,12.76-6.41,16.37-4.32,3.61-11.25,5.44-20.8,5.51l-3.32.02c-1.64.01-3.42-.01-5.34-.07-1.92-.06-3.71-.11-5.34-.18-1.64-.06-2.75-.09-3.31-.08l-.3-43.81c.71,0,1.85-.05,3.42-.13,1.56-.08,3.27-.16,5.13-.25,1.85-.08,3.59-.16,5.23-.25,1.64-.08,2.81-.13,3.52-.14,8.97-.06,15.79,1.5,20.44,4.69,4.65,3.19,7.01,8.65,7.06,16.38v1.93Z"/>
      <path class="cls-2" d="M187.63,421.36c-8.6-6.49-10.52-20.6-4.17-30.12.99-1.49,2.18-2.88,3.43-4.16,12.63-12.84,25.29-25.65,37.94-38.47.55-.55,1.05-1.13,1.96-2.11-3.72-3.55-7.44-7.01-11.05-10.56-9.62-9.43-19.27-18.83-28.74-28.41-2.32-2.35-4.34-5.16-5.92-8.07-2.27-4.19-1.78-8.89-1.67-13.51.12-4.73,3.02-8.1,5.24-11.8.97-1.62,2.19-1.87,3.73-.29,4.7,4.78,9.53,9.43,14.3,14.14,14.12,13.98,28.26,27.93,42.34,41.95,9.29,9.25,9.38,23.86.22,33.18-18.62,18.92-37.29,37.8-55.95,56.69-.54.55-1.13,1.05-1.66,1.54"/>
      <path class="cls-2" d="M158.09,404.6c-8-5.96-8.57-18.23-1.46-25.82,5.03-5.37,10.3-10.52,15.46-15.76,4.73-4.79,9.47-9.57,14.2-14.37.43-.43.79-.93,1.45-1.72-3.15-3.03-6.28-5.97-9.33-8.97-7.15-7.02-14.31-14.03-21.38-21.14-1.57-1.59-3.03-3.43-4.06-5.41-3.28-6.32-1.96-12.39,1.52-18.2.67-1.11,1.58-2.08,2.51-3.28.68.63,1.26,1.13,1.79,1.66,14.18,14.03,28.36,28.04,42.51,42.09,7.96,7.9,7.9,18.81.04,26.73-13.62,13.72-27.18,27.51-40.75,41.28-.87.88-1.65,1.87-2.52,2.88"/>
      <path class="cls-2" d="M158.36,347.56c-7.62-7.49-14.7-14.46-21.81-21.4-2.4-2.34-3.89-5.11-4.14-8.45-.3-3.96,1.04-7.34,4.07-10.32.7.64,1.33,1.19,1.92,1.77,9.59,9.45,19.19,18.91,28.77,28.38,5.99,5.92,5.99,13.31.08,19.28-9.21,9.29-18.39,18.61-27.54,27.94-.82.83-1.46,1.83-2.13,2.69-5.94-4.26-6.28-12.96-1.05-18.35,6.38-6.57,12.85-13.07,19.31-19.57.66-.66,1.47-1.16,2.52-1.96"/>
      <path class="cls-2" d="M460.61,450.94c-.82-.31-1.56-.64-2.21-1.02-.65-.36-1.21-.8-1.67-1.32-.46-.52-.82-1.13-1.08-1.86-.26-.72-.39-1.59-.4-2.6,0-1.22.2-2.31.61-3.25.41-.95,1-1.74,1.77-2.39.76-.64,1.7-1.13,2.78-1.46,1.07-.33,2.29-.5,3.64-.51,1.23,0,2.38.1,3.45.3,1.08.21,2.2.52,3.39.92-.14,1.4-.51,2.77-1.13,4.13-.36-.14-.73-.28-1.11-.43-.38-.14-.77-.26-1.19-.35-.42-.09-.9-.17-1.42-.23-.53-.06-1.14-.08-1.81-.08-.41,0-.83.05-1.25.12-.42.08-.8.21-1.14.41-.34.2-.61.47-.82.84-.21.38-.32.87-.32,1.48,0,.48.09.88.27,1.2.18.33.4.6.69.82.29.23.62.43.98.58.36.15.73.3,1.09.44l2.18.82c.92.35,1.75.73,2.5,1.1.75.37,1.38.85,1.9,1.41.53.56.93,1.25,1.23,2.05.29.81.44,1.8.45,2.98,0,1.23-.21,2.35-.64,3.37-.44,1.02-1.08,1.89-1.92,2.62-.85.73-1.88,1.3-3.11,1.72-1.23.42-2.67.63-4.28.64-.8,0-1.51,0-2.13-.05-.63-.05-1.23-.12-1.8-.22-.56-.11-1.13-.24-1.68-.41-.55-.16-1.14-.36-1.74-.59.07-.71.21-1.44.39-2.19.19-.76.41-1.53.66-2.3,1.02.4,1.97.71,2.86.9.89.2,1.85.29,2.86.29,1.51-.01,2.7-.3,3.57-.87.87-.57,1.29-1.43,1.28-2.59,0-.58-.11-1.06-.32-1.44-.21-.38-.48-.7-.8-.97-.33-.26-.7-.49-1.11-.67-.41-.17-.83-.34-1.27-.51l-2.21-.82ZM437.32,437.16l14.74-.1c.15.72.23,1.45.23,2.2,0,.79-.06,1.55-.2,2.27l-9.47.06.04,5.64,7.52-.05c.15.77.23,1.52.23,2.24,0,.77-.06,1.53-.2,2.28l-7.52.05.05,6.87,9.72-.06c.15.72.22,1.45.23,2.2,0,.79-.06,1.55-.2,2.28l-15,.1-.17-25.98ZM415.93,432.1c.41-.54.97-1.01,1.67-1.42.7-.42,1.52-.63,2.43-.63.46,0,.91.08,1.35.23.44.15.88.32,1.33.49.43.18.87.35,1.32.5.44.15.9.23,1.39.23.44,0,.84-.09,1.22-.24.37-.16.82-.5,1.35-1,.79.84,1.34,1.74,1.65,2.73-.4.53-.96.99-1.65,1.37-.7.39-1.47.59-2.31.6-.5,0-1-.08-1.49-.23-.48-.15-.96-.32-1.42-.5-.46-.17-.92-.34-1.36-.49-.44-.15-.88-.22-1.32-.22-.48,0-.89.09-1.24.25-.36.18-.8.51-1.31.99-.36-.44-.69-.87-.98-1.28-.3-.42-.51-.88-.62-1.38ZM422.55,459.26c3.73-.03,5.57-3.03,5.53-9-.02-2.98-.49-5.22-1.4-6.71-.91-1.49-2.32-2.23-4.23-2.21-3.78.02-5.65,3.03-5.62,9,.04,5.97,1.95,8.95,5.71,8.93ZM422.58,463.67c-1.96.01-3.64-.31-5.07-.98-1.43-.66-2.61-1.58-3.52-2.77-.93-1.18-1.63-2.59-2.08-4.21-.45-1.63-.69-3.4-.7-5.32-.01-1.93.2-3.72.63-5.37.43-1.65,1.1-3.08,2.02-4.29.9-1.2,2.06-2.16,3.48-2.84,1.42-.69,3.1-1.03,5.05-1.05,1.95-.01,3.64.31,5.07.98,1.43.66,2.6,1.6,3.52,2.79.92,1.21,1.62,2.62,2.07,4.27.45,1.65.69,3.43.7,5.36.01,1.93-.2,3.7-.63,5.33-.43,1.63-1.11,3.05-2.01,4.25-.9,1.2-2.06,2.14-3.48,2.82-1.42.69-3.11,1.03-5.05,1.05ZM398.9,467.3l1.39-3.77c-1.57-.28-2.95-.8-4.13-1.56-1.18-.76-2.18-1.71-2.98-2.84-.81-1.13-1.41-2.43-1.82-3.89-.41-1.46-.62-3.04-.63-4.73-.01-1.92.25-3.72.8-5.37.54-1.65,1.33-3.08,2.38-4.3,1.04-1.2,2.32-2.15,3.84-2.84,1.52-.69,3.26-1.04,5.21-1.05,1.16,0,2.23.06,3.21.19.97.15,2.03.44,3.16.89-.05.72-.19,1.42-.42,2.1-.23.69-.49,1.39-.79,2.1-.84-.29-1.59-.49-2.24-.61-.65-.11-1.43-.17-2.32-.16-2.32.02-4.08.78-5.31,2.29-1.23,1.51-1.84,3.76-1.82,6.72.04,5.88,2.55,8.8,7.54,8.77.89,0,1.68-.07,2.35-.2.66-.12,1.42-.33,2.27-.63.32.68.58,1.37.8,2.07.2.71.36,1.42.46,2.15-1.26.47-2.38.78-3.38.93-1,.15-2.08.23-3.23.24-.07,0-.14,0-.22-.01-.07,0-.14-.02-.21-.02l-.53,1.3c.11-.03.23-.05.34-.06.11-.01.24-.02.38-.02.73,0,1.34.08,1.84.26.5.17.93.41,1.28.73.34.31.59.66.74,1.06.16.4.24.82.24,1.28.01,1.23-.48,2.16-1.46,2.82-.99.64-2.39.97-4.22.98-.41,0-.89-.01-1.45-.06-.56-.05-1.15-.15-1.77-.32.05-.44.12-.88.21-1.35.09-.46.28-.89.57-1.3.44.15.85.25,1.24.31.38.05.73.08,1.03.07.87,0,1.47-.1,1.83-.28.35-.19.52-.48.52-.85,0-.65-.67-.97-1.99-.96-.34,0-.69.03-1.04.08-.36.05-.79.16-1.27.32l-.41-.5ZM367.62,437.63c.46-.07.9-.13,1.34-.16.43-.02.87-.04,1.33-.04.41,0,.83,0,1.27.02.43.03.87.07,1.33.15l.09,13.47c.01,1.47.07,2.74.19,3.78.12,1.05.34,1.92.67,2.6.32.68.79,1.19,1.39,1.51.59.32,1.35.48,2.29.47.94,0,1.7-.17,2.28-.51.57-.32,1.02-.84,1.34-1.53.32-.69.53-1.56.64-2.61.1-1.04.14-2.31.13-3.78l-.09-13.47c.48-.08.94-.13,1.38-.16.43-.02.85-.04,1.26-.04.43,0,.87,0,1.32.02.44.03.89.08,1.35.14l.1,14.6c.01,1.75-.12,3.36-.4,4.82-.29,1.47-.79,2.72-1.53,3.76-.74,1.04-1.74,1.85-2.99,2.42-1.24.57-2.83.87-4.77.88-1.93.01-3.52-.26-4.77-.82-1.26-.55-2.26-1.35-3.02-2.38-.76-1.03-1.28-2.27-1.57-3.74-.31-1.45-.46-3.06-.48-4.81l-.1-14.6ZM348.76,459.55c.22.02.5.04.84.06.34.03.74.04,1.22.03,1.11,0,2.14-.14,3.09-.4.95-.26,1.77-.73,2.47-1.41.69-.67,1.24-1.57,1.64-2.72.4-1.14.6-2.59.58-4.38,0-1.73-.22-3.18-.64-4.34-.42-1.16-.98-2.06-1.68-2.73-.71-.66-1.51-1.14-2.42-1.41-.9-.27-1.87-.4-2.88-.39-.34,0-.73,0-1.17.02-.44.01-.84.05-1.18.1l.12,17.57ZM343.31,437.79c1.02-.13,2.07-.24,3.17-.34,1.11-.09,2.34-.14,3.69-.15,4.56-.03,8.03,1.07,10.42,3.32,2.38,2.25,3.59,5.64,3.62,10.18.03,4.55-1.16,7.91-3.55,10.06-2.39,2.16-5.97,3.26-10.72,3.29-1.23,0-2.36-.03-3.39-.1-1.03-.08-2.06-.17-3.07-.29l-.18-25.98ZM328.43,459.9c3.73-.03,5.57-3.03,5.53-9-.02-2.98-.49-5.22-1.4-6.71-.91-1.49-2.32-2.23-4.23-2.21-3.78.02-5.65,3.03-5.61,9,.04,5.97,1.94,8.95,5.7,8.92ZM328.46,464.31c-1.96.01-3.64-.32-5.07-.98-1.43-.66-2.6-1.58-3.52-2.77-.93-1.18-1.63-2.59-2.08-4.22-.45-1.62-.69-3.4-.7-5.32-.01-1.92.2-3.72.63-5.37.43-1.65,1.11-3.08,2.02-4.29.9-1.2,2.06-2.15,3.48-2.84,1.42-.69,3.1-1.04,5.05-1.05,1.94-.01,3.64.31,5.06.98,1.43.67,2.6,1.6,3.52,2.79.92,1.2,1.61,2.62,2.07,4.27.45,1.65.69,3.44.7,5.36.01,1.92-.2,3.7-.63,5.33-.43,1.63-1.11,3.05-2.01,4.24-.9,1.2-2.07,2.15-3.49,2.82-1.42.69-3.11,1.04-5.05,1.05ZM296.95,438.11c1.05-.13,2.05-.24,2.98-.34.93-.09,1.95-.14,3.08-.14,1.32,0,2.63.1,3.93.33,1.29.24,2.46.66,3.5,1.27,1.04.61,1.87,1.43,2.53,2.47.64,1.05.97,2.38.98,3.99,0,.96-.11,1.81-.34,2.54-.23.74-.53,1.39-.91,1.94-.38.56-.77,1.04-1.2,1.44-.44.41-.84.72-1.22.96l-.61.4,6.4,10.94c-.48.06-.98.11-1.52.16-.53.05-1.07.08-1.63.08-.91,0-1.81-.06-2.71-.21l-6.88-12.02.87-.44c.34-.18.76-.39,1.23-.66.48-.26.94-.6,1.38-1,.44-.4.81-.89,1.13-1.45.32-.56.46-1.24.46-2.01,0-1.51-.45-2.63-1.32-3.33-.87-.7-1.99-1.05-3.37-1.04-.54,0-1.02.05-1.45.12l.15,21.93c-.44.06-.87.1-1.3.14-.44.03-.86.06-1.27.06-.41,0-.84,0-1.3-.02-.46-.03-.92-.08-1.4-.14l-.18-25.98ZM281.71,451.47c.29.05.55.07.81.07.26,0,.56,0,.92,0,.6,0,1.2-.09,1.78-.25.57-.16,1.08-.43,1.52-.79.44-.36.79-.84,1.06-1.43.26-.59.39-1.31.38-2.19,0-.89-.14-1.65-.41-2.26-.27-.61-.63-1.1-1.08-1.48-.44-.37-.96-.63-1.53-.78-.58-.15-1.18-.23-1.78-.22-.26,0-.5.01-.73.03-.23,0-.56.04-1,.1l.06,9.21ZM276.35,438.14c1.11-.1,2.22-.19,3.36-.26,1.14-.07,2.27-.11,3.43-.12,1.21,0,2.44.1,3.68.33,1.24.24,2.36.68,3.37,1.34,1,.66,1.82,1.57,2.46,2.74.63,1.17.95,2.71.96,4.59.01,1.88-.28,3.4-.9,4.57-.62,1.17-1.42,2.1-2.41,2.78-.99.68-2.08,1.15-3.3,1.4-1.22.24-2.41.37-3.59.38-.32,0-.61,0-.88-.02-.28,0-.54-.02-.78-.04l.06,8.35c-.46.08-.9.13-1.33.16-.44.02-.86.04-1.27.04-.38,0-.8,0-1.26-.02-.46-.03-.93-.08-1.42-.14l-.18-26.09Z"/>
    </g>
  </g>
</svg>