<?xml version="1.0" encoding="UTF-8"?>
<svg fill="#fff" id="Layer_1" data-name="Layer 1" xmlns="http://www.w3.org/2000/svg" viewBox="0 0 283.46 283.46">
  <path d="M200.89,158.11c.19-.28.47-.65.74-.74.47,0,.74.56,1.02.84.28.37.28.84.28,1.21,0,.09.09.09.19.09.19-.09.19-.28.28-.47.19-.74-.09-1.4-.65-1.95h0c-.28-.28-.37-.74-.93-1.02-.56-.19-.47.56-.74.84-.09.37-.47.74-.28,1.21h.09Z"/>
  <path d="M187.96,166.3c-.24-.32-.69-.16-.99-.23.26.36.45.8.8,1.06.29.29.71.43,1.15.48-.04-.03-.09-.07-.13-.11-.37-.28-.56-.84-.84-1.21Z"/>
  <path d="M186,164.16c.37-.19.84-.19,1.3-.19.37,0,.84,0,1.12.37.56.65.74,1.49,1.58,1.86.65.09,1.21-.19,1.77-.37.28-.19.65-.47.65-.84-.09-.74-.56-1.4-1.21-1.86-.65-.37-1.4-.84-1.86-1.49-.28-.37-.28-.74-.47-1.12-.09-.09-.19-.09-.28-.09-.28.19-.09.65,0,.93,0,.07.03.15.05.22.26.17.51.35.6.62-.47.09-.93,0-1.3.37-.65-.28-1.49-.09-2.23,0-.37,0-.74.19-1.02.56-.09.19-.09.56,0,.74l1.02,1.68c.09.19.28.37.47.37.16.08.44.03.64.07-.28-.55-.64-1.01-.92-1.46,0-.09,0-.28.09-.37ZM188.52,163.33l.19-.09c.47,0,1.02,0,1.49-.09.56.09.37.65.56.93,0,.19.37.47.09.56-.37.28-.74.47-1.21.37-.37-.28-.37-.74-.65-1.12-.09-.28-.56-.28-.47-.56Z"/>
  <path d="M168.41,166.68c.28-.28.47-.56.65-.84.56-.37,1.3-.65,1.68-1.3.28-.56.28-1.12.74-1.68l.28-.09,1.21-.09c.47-.19.93-.47,1.4-.84.19-.19.19-.37.19-.56-.19-.56-.47-1.02-.56-1.58-.19-.65,0-1.3-.09-1.95-.09-.09-.09-.19-.19-.19-.44.1-.86.2-1.29.25.04.91.23,1.8.64,2.54v.28c-.37.37-.84.56-1.3.65-.28,0-.65-.09-1.02,0-.47,0-.74.47-.84.84-.37.56-.19,1.3-.93,1.58l-.84-.74c-.74-.47-1.4.28-1.95.65-.28.19-.56.47-.56.84-.47.19-.93.56-1.21,1.02-.19.28-.09.74-.19,1.02-.19.28-.37.56-.37.84.09.19.09.47.28.56.47.28.93.37,1.49.56.28.09.47-.09.65-.19.26.06.52.12.79.15.09-.54.21-1.06.6-1.45.28,0,.47-.09.74-.28ZM166.18,166.3c-.19.56-.37,1.21-.56,1.77-.37-.09-.74-.19-1.12-.28-.09-.09,0-.19,0-.28.37-.37.28-.84.37-1.3.09-.28.28-.56.56-.65.37.09.56.37.74.56v.19ZM167.2,165.47c-.19.09-.37,0-.56,0-.09-.09-.28-.19-.28-.37s0-.37.09-.47c.37-.19.74-.47,1.02-.74.09,0,.28-.09.37,0s.28.19.37.37h0c-.28.47-.56.93-1.02,1.21Z"/>
  <path d="M181.07,161.46c-.37-.93-.28-2.05-.09-2.98,0-.09-.09-.19-.19-.19s-.19,0-.19.09c-.28.93-.28,1.95-.56,2.98-.37.84-.93,1.77-1.86,2.23-.74.37-1.68.56-2.61.65-1.68,0-3.35.37-4.37,1.86-.09.19-.19.28-.19.47.09.09.19.09.28,0,1.12-1.3,2.7-1.86,4.37-1.77,1.68,0,3.26-.28,4.28-1.68.28-.28.47-.65.65-.93.12,0,.2.08.29.17l.36-.72c-.06-.06-.12-.12-.18-.2Z"/>
  <path d="M200.71,163.42c.28,0,.65,0,.93-.09.19-.19.19-.56.19-.84h0c-.09-.19-.28-.19-.28-.19-.47.09-.84.47-1.02.93,0,.09.09.19.19.19Z"/>
  <path d="M255.34,167.05h0c-.09-.37,0-.65-.19-1.02-.19-.47-.74-.84-1.21-1.02,0-.19-.09-.37-.19-.56-.56-.37-1.02-.84-1.58-1.21-.56-.09-1.02.37-1.4.74-.19.09-.19-.19-.28-.28-.19-.56-.37-1.21-.65-1.86-.28-.65-1.02-.56-1.58-.56-.28,0-.56,0-.65-.19,0-.47.19-.84.28-1.21.19-.74.09-1.58,0-2.23.28,0,.56.09.84.09.84,0,1.58-.09,2.23-.47,1.12-.74,1.95-1.86,2.05-3.26,0-.74-.19-1.3-.56-1.86-.56-1.02-1.49-1.95-2.42-2.79.65-.09,1.21-.28,1.77-.65,1.12-.74,1.4-2.05,1.21-3.26-.09-.37-.09-.84-.47-1.12-.47-.19-.56.37-.84.56-.47.56-1.3.47-1.95.65-1.12.37-2.61,1.12-2.88,2.42-.19,1.77,1.58,2.79,2.61,4,.56.56,1.02,1.21.93,2.05-.09.37-.37.65-.74.74-1.21.47-2.33-.28-3.35-.84-1.68-1.21-3.54-2.42-5.68-2.61-1.02-.19-1.86-.93-2.79-1.49-.74-.47-1.49-.74-2.42-.84-.65-.09-1.21-.74-1.77-1.12-.84-.56-1.77-.93-2.79-1.12-.37-.09-.74-.09-1.02-.37-.37-.37-.74-.84-1.12-1.12-.84-.56-1.86-.93-3.07-.84-.56.19-.93.56-1.49.84v-.09c-3.16-4.28-8.28-7.17-14.15-7.17s-10.89,2.79-14.05,7.07l-.09-.09c-.47-.19-.93-.28-1.49-.37-1.21-.09-2.14.37-3.07,1.12-1.58,1.02-3.54,1.02-5.03,2.33-.37.28-.65.74-1.02.93-.47.09-1.02.09-1.49.19-1.12.28-2.05.93-2.88,1.77-.56.37-1.12.65-1.68.84-1.4,0-2.7.37-3.72,1.12-1.12.84-2.23,1.68-3.54,2.23-.65.28-1.58.28-2.14-.28-.56-.47-.65-1.02-.47-1.68.37-.84,1.21-1.58,2.05-2.14,1.12-.84,1.95-1.86,1.58-3.35-.56-1.77-2.51-1.86-4-2.33l-.56-.28c-.56-.28-.74-.56-1.3-.84-.19-.09-.37,0-.47.19-.37.65-.56,1.4-.37,2.14.28,1.12,1.4,2.23,2.61,2.42.15.05.3.07.44.08-.92-.38-1.65-1.21-1.75-2.22,0-.47,0-.84.28-1.21-.19-.37.37.19,1.02.37h0c1.12.28,2.23.28,3.07,1.12.47.56.47,1.49.19,2.05-.65,1.12-1.86,1.68-2.7,2.61-.74.65-1.02,1.68-.74,2.61.28.84,1.12,1.4,1.95,1.49,1.3,0,2.33-.65,3.44-1.21,1.12-.74,2.05-1.77,3.35-2.05.84-.28,1.77-.19,2.51-.47.84-.19,1.58-.93,2.23-1.49.74-.65,1.68-1.02,2.7-.93.93.19,1.4-.65,2.05-1.21,1.02-.93,2.42-1.02,3.63-1.58.84-.28,1.58-.93,2.33-1.3s1.77-.37,2.61-.09c.56.28,1.02.47,1.49.74l3.63,3.07.28.28c1.02,1.3,2.14,2.51,2.98,3.82.28.47.37,1.02.56,1.49.19,2.05.74,3.91,1.4,5.68.19.28.56.47.74.74.56.84.93,1.86,1.86,2.33l.56.28c0,.09.09.09,0,.19l-.09.09c-1.12.19-1.95-.56-2.51-1.3-.37-.74-.84-1.49-1.68-1.77,0,0-.09,0-.09.09.09.28.37.47.47.74.28.47.56,1.02.74,1.58.19.56.84,1.02,1.3,1.3l.74.37c.09.09.09.19.09.28l-.09.09c-1.21,0-2.33-.37-3.16-1.21-.19-.19-.47-.37-.74-.37-.56.47-1.12.93-1.77,1.02-.74-.09-1.58-.19-2.23.19-.65.19-1.21.47-1.95.56-.37,0-.74-.19-.84-.47,0-.37-.28-.84,0-1.21l.47-.65c0-.09-.09-.19-.19-.19-.19,0-.47.28-.56,0,.09-.74.74-1.12,1.21-1.58.09-.56.28-1.02.74-1.49,0-.09-.09-.09-.09-.19-.56.09-1.12.28-1.77.28-.47.28-1.12.47-1.68.28-.09-.09-.09-.19,0-.28.65-.84.84-1.95.65-2.98-.09,0-.09-.19-.19-.09-.09,0-.09.09-.19.19-.09,1.02-.47,1.77-1.02,2.61-.37.47-1.02.37-1.58.56-.09.09-.28.19-.28.28,0,.37.28.65.37.93l1.21,2.14c0,.56-.19,1.21-.37,1.68.09.09.19.09.19,0,.37-.37.65-.84.84-1.4.09-.28,0-.47-.09-.65l-1.21-2.42c.09-.19.28-.09.47-.19.28,0,.56.09.84.19.28.74.56,1.49,1.12,2.14.09.37.28.93,0,1.3-.12.23-.23.45-.35.66,3.18,4.4,8.3,7.35,14.22,7.35s11.07-2.88,14.24-7.35c0,.09.09.09.09.19.09.19.19.47.28.56.28.37.84.19,1.3.28.28.19.56.56.84.65.93.28,1.95.47,2.88.84.28.09.65.19.93.09.74-.19,1.49-.84,1.68-1.68,0-.28.47-.09.56-.28.56-.47.74-1.12,1.12-1.58.09-.19.09-.47.09-.74-.09-.19-.28-.37-.47-.37-.74-.19-1.68-.09-2.51-.19l-.19-.19c-.19-.19-.47-.19-.65-.19l.47-.37c1.02,0,2.05,0,2.98-.19.74-.19,1.49-.28,2.33-.28,1.02.09,2.05.19,3.07,0,.28.93.28,1.86.93,2.61.47.65,1.3.84,1.86,1.3.65.28,1.49.09,2.14,0,1.49,0,2.61.84,3.82,1.68.56.37,1.3.19,1.86-.09.28.37.47.65.84.93.74.65,1.77.37,2.7.47.09.09.28.19.37.19l1.68-.56.19-.19c.56-.37.19-.74,0-1.12ZM252.17,163.98h0c.37.28.84.56,1.12.93.09.19-.09.37-.19.47-.19.09-.28.28-.56.28-.19,0-.37-.09-.56-.37-.28-.37-.56-.65-.65-1.02.28-.19.56-.56.84-.28ZM230.21,163.51c.09-.09.28,0,.28.09h0c-.09.47-.19.84-.37,1.3-.09.28-.56.19-.74.19-.28-.09-.74-.09-.74-.56,0-.37.09-.74.28-1.02.37-.09.93,0,1.3,0ZM253.2,167.98c-.65,0-1.49.19-1.95-.28-.56-.37-.74-1.3-1.49-1.12-.37.28-.84.37-1.3.19-.37-.09-.65-.47-1.02-.74-1.12-.74-2.51-1.21-3.91-.93-.84.19-1.4-.37-2.05-.74-.84-.37-1.12-1.3-1.3-2.05l-.19-.93c0-.09.09-.19.19-.19h.09c.47,1.12,1.4,2.33,2.61,2.79,1.12.47,2.14-.09,3.35.09,1.12.19,2.05.84,2.88,1.58.09,0,.09-.09.19-.09v-.09c-1.02-1.3-2.42-1.95-4.09-1.86-1.4.28-2.79-.19-3.54-1.3-.47-.65-.74-1.4-.93-2.14-.09-.93-.37-1.86-.65-2.7-.09-.09-.19-.09-.28-.09l-.09.09c.19.84.37,1.86.09,2.79-.19.74-.93,1.02-1.68,1.02-.65,0-1.3-.09-2.05-.09-1.68-.09-3.07.65-4.75.47.19-.37.37-.84.28-1.3-.09-.09-.19-.09-.28-.09-.28.19-.28.56-.47.84-.37.65-1.02,1.12-1.68,1.3-.47.37-.93.84-1.3,1.3-.19.09-.19.37-.09.56.37.84,1.21.93,1.95,1.12.37,0,.74-.09.84-.37.28-.47.37-1.3,1.12-1.4h1.58c.09.09.28.09.28.28l-.09.19c-.37.37-.47.93-.93,1.3-.28.09-.56,0-.74.19-.09.56-.19,1.12-.74,1.4-.37.37-1.02.19-1.4,0-.84-.28-1.77-.47-2.61-.74-.37-.09-.47-.56-.84-.65-.37-.09-.74.19-1.02-.09-.19-.37-.28-.65-.37-1.12-.09-.28-.19-.56-.28-.84-.09-.28,0-.47.09-.65l1.12-2.14c.09-.09.19-.28.37-.28.28.09.56.19.84.37l-.09.19-1.21,1.86c-.28.56,0,1.21.28,1.77.09,0,.09.09.19.09,0-.37-.09-.74,0-1.12s.28-.65.56-1.02l.93-1.4c.09-.28.09-.56-.09-.84-.47-.47-1.02-.56-1.3-1.02-.84-1.02-.84-2.23-.93-3.54,0-.09-.09-.28-.19-.28s-.19.09-.19.19c-.28.84-.09,1.86.09,2.61.19.56.37,1.12.65,1.68,0,.09-.09.19-.19.28-.65,0-1.3,0-1.86-.09-.84-.09-1.4-.74-2.05-1.21-.09-.09-.19,0-.19.09.19.93,1.21,1.4,1.49,2.33.19.65.84,1.21,1.02,1.86,0,.09-.09.19-.19.28-.19.09-.47-.09-.65,0,0,.37.19.74,0,1.21-.19.37-.56.74-.93.74-.84-.28-1.58-.65-2.42-.84-.56-.09-1.21,0-1.77.09-.56-.09-.93-.56-1.3-.84-.09,0-.28-.09-.37,0-.93.93-1.86,1.86-3.26,1.86-.09,0-.19-.09-.19-.19v-.09c.65-.56,1.3-1.12,1.58-1.86.19-.65.74-1.02.93-1.68,0-.09-.09-.19-.19-.19l-.19.09c-.65.74-1.12,1.4-1.68,2.14-.47.56-1.21.84-1.95.65-.09-.09-.09-.19-.09-.28,2.79-1.68,3.16-4.75,3.91-7.54.56-1.86.93-3.72,2.42-5.21,2.14-2.33,4.84-3.82,7.26-5.86.37-.28.74-.65,1.21-.65,1.02-.19,1.95.28,2.79.93h0c.47.28.65.93,1.3,1.12,1.02.19,1.95.47,2.88.93.65.37,1.21.74,1.77,1.3.56.28,1.21.28,1.77.47.84.19,1.58.84,2.33,1.4,1.02.74,2.42.65,3.54,1.21,1.77.56,3.26,1.95,4.93,2.79.84.47,2.14.65,3.07.09.56-.47.93-.93.84-1.68-.28-1.86-2.33-2.79-3.35-4.37-.19-.37-.28-.84-.19-1.3.37-.93,1.3-1.4,2.14-1.77.65-.28,1.4-.28,2.05-.65.19-.09.37-.28.56-.47.19,0,.19.19.19.19.19,1.12,0,2.23-.93,2.79-.37.28-.84.37-1.21.47-.37.19-1.12-.19-1.02.47.09.28.37.56.65.74,1.21,1.02,2.42,2.42,2.61,4,0,1.3-.84,2.33-1.95,2.88-.74.37-1.77.47-2.7.19-.19,0-.65-.28-.74,0-.09.37.19.65.19.93.09.56.09,1.3-.09,1.95-.09.47-.56,1.02-.09,1.49.37.65,1.21.47,1.86.56.37.09.47.47.56.74.09.37.19.74.28,1.02,0,.65.74.93,1.12,1.4.47.47.84,1.3,1.68,1.3.28.56.47,1.02.47,1.68l-.09.09ZM254.87,167.98l-1.02.28c-.19,0-.09-.19-.19-.28-.09-.56-.28-.93-.47-1.49,0-.28.28-.56.47-.74.47-.19.65.09.84.28.19.28.19.84.19,1.21.09.28.37.47.19.74Z"/>
  <path d="M219.23,156.72c-.09-.19-.19-.37-.28-.37-.47.47-.74,1.02-1.3,1.49-.56.47-.84,1.12-.74,1.86,0,.09.09.19.19.19.19-.09.09-.37.19-.56.09-.56.65-.93,1.02-1.3.19-.19.37-.37.65-.37.37,0,.37.47.65.56.09.09.19,0,.28-.09v-.28c-.19-.37-.37-.74-.65-1.12h0Z"/>
  <path d="M225.56,148.71c-.74.56-1.4,1.4-1.77,2.23-.09.37-.19.74-.09,1.12h.09c.19-.28.28-.47.47-.74.47-.74,1.21-1.4,1.86-1.95.09-.09.19-.28.09-.47s-.37-.19-.65-.19Z"/>
  <path d="M168.32,155.69c-.37-1.02-.28-2.51.47-3.35.74-.93,1.68-1.58,2.51-2.33.19-.09.19-.28.19-.37,0-.19-.19-.37-.37-.37-.47-.08-1-.03-1.48-.12-.8.63-1.52,1.26-2.15,2.07-.84,1.02-1.12,2.7-.56,3.91.47,1.21,1.68,2.23,2.98,2.42.17.04.33.06.5.07-.91-.33-1.72-.99-2.08-1.93Z"/>
  <path d="M219.41,162.77c-.19-.28-.56-.37-.84-.28-.09,0-.09.09-.09.19,0,.28.09.56.37.74.19.09.56.19.74,0,.09-.28-.09-.47-.19-.65h0Z"/>
  <path d="M195.5,153.09h.09c.19-.74.19-1.68-.09-2.33-.09-.28-.28-.47-.56-.65-.09,0-.28,0-.37.09-.19.37.28.65.37,1.02.28.56.47,1.21.56,1.86Z"/>
  <rect x="151.57" y="141.18" width="5.86" height="28.48"/>
  <path d="M169.32,149.08s.01,0,.02.01c.09.03.19.05.29.07.03-.02.06-.05.09-.07-.13,0-.26,0-.39-.01Z"/>
  <path d="M88.01,154.76c-1.4-1.49-3.35-2.33-5.4-2.33-4.47,0-8.1,3.91-8.1,8.84s3.63,8.84,8.1,8.84c2.1,0,3.92-.81,5.4-2.24v-.09h.09s-.06.06-.09.09v1.78h5.4v-28.38h-5.4v13.49ZM84.19,165.56c-2.23,0-4-1.95-4-4.37s1.77-4.37,4-4.37,4,1.95,4,4.37-1.77,4.37-4,4.37Z"/>
  <path d="M53.11,150.58c0-4.37-3.72-8-8.19-8h-9.86v27.08h5.77v-22.43h2.98c2.14,0,3.72,1.58,3.63,3.54,0,1.95-1.68,3.54-3.82,3.54h-1.3v6.51l5.77,8.84h6.79l-8-11.26c3.63-.93,6.24-4,6.24-7.82Z"/>
  <rect x="141.98" y="141.18" width="5.86" height="28.48"/>
  <path d="M63.25,152.16c-4.93,0-8.93,4.09-8.93,9.03s4,9.03,8.93,9.03c3.82,0,6.7-1.68,8.19-4.37l-4.37-2.05c-.56,1.21-1.86,2.05-3.35,2.05-2.05,0-3.72-1.49-3.72-3.35,0-.09-.09-.09,0-.19l11.91.09c0-.37.09-.74.09-1.12.09-5.86-3.82-9.12-8.75-9.12ZM59.9,159.23c0-1.86,1.49-3.35,3.35-3.35s3.26,1.49,3.26,3.35h-6.61Z"/>
  <path d="M133.7,162.77c0,1.68-1.4,2.98-3.07,2.98-1.86.09-3.16-1.3-3.16-2.88v-9.77h-5.4v10.8c0,3.63,3.82,6.61,8.47,6.61s8.47-2.98,8.47-6.61v-10.8h-5.3v9.68Z"/>
  <path d="M115.46,154.86c1.49-1.4,2.42-3.26,2.42-5.3,0-1.86-.74-3.63-1.95-4.93-1.3-1.4-3.54-2.05-6.7-2.05h-9.31v27.08h12.01c4.56-.09,8.28-3.54,8.28-7.82,0-3.07-1.12-5.3-4.75-6.98ZM110.99,164.91h-5.21v-17.68h3.63c1.58,0,2.88,1.3,2.88,2.88s-1.3,2.88-2.88,2.88h-1.86v4.93h3.44c1.95,0,3.44,1.58,3.44,3.54-.19,1.95-1.4,3.35-3.44,3.44Z"/>
  <path d="M186.83,166s0,.02.01.03c.04.03.08.04.13.05-.01-.02-.02-.04-.03-.05-.03-.01-.07-.02-.11-.03Z"/>
  <path d="M184.61,161.37c-1.21-.28-2.23.47-3.35.28v.02c.75.72,1.94.16,2.88.08,1.02-.09,1.95.28,2.98.37.56,0,1.12.09,1.49-.19.11-.11.09-.22.05-.34-.02-.01-.03-.02-.05-.04-1.3.28-2.7.09-4-.19Z"/>
  <path d="M195.5,165.09c-.19.37-.47.84-.93,1.02l-1.4.19c-1.12.47-2.33.84-3.44,1.3-.25.04-.53.04-.8.01.38.28.95.34,1.36.17,1.12-.37,2.23-.74,3.35-1.3h.37c.37-.09.93-.09,1.21-.37.16-.27.33-.54.49-.83-.07-.09-.14-.19-.21-.28v.09Z"/>
  <path d="M170.4,157.62c.26.1.53.17.8.21.44.04.83.02,1.22-.03,0-.12,0-.23,0-.35-.67.07-1.34.21-2.01.16Z"/>
  <path d="M179.49,164.35c-.56.19-1.02.56-1.58.84-.93.47-2.14.28-3.07.09-.37-.09-.65,0-1.02.09-.37.19-.65.56-1.02.84-.56.28-1.02.74-1.68.74-.37,0-.74-.19-1.12-.09-.47.47-.65,1.3-1.4,1.49-.49.12-1.02.12-1.53.06-.02.1-.03.21-.05.32.65.09,1.4.47,2.05.09.56-.28.65-.93,1.12-1.4.28-.37.84-.09,1.21,0,.65,0,1.12-.47,1.58-.65.37-.19.65-.56,1.02-.84.65-.37,1.68-.19,2.42,0,.56.09,1.21.09,1.68-.19.47-.28.93-.65,1.49-.74.47-.19.74-.74.93-1.21.19-.37.56-.74.56-1.21-.07-.07-.13-.14-.18-.2h0c-.56.57-.56,1.59-1.4,1.97Z"/>
</svg>