<?xml version="1.0" encoding="UTF-8"?>
<svg xmlns="http://www.w3.org/2000/svg" xmlns:xlink="http://www.w3.org/1999/xlink" viewBox="0 0 704 704">
  <defs>
    <style>
      .cls-1 {
        fill: none;
      }

      .cls-2 {
        clip-path: url(#clippath-1);
      }

      .cls-3 {
        fill: #fff;
      }

      .cls-4 {
        fill: #fff;
      }

      .cls-5 {
        clip-path: url(#clippath);
      }
    </style>
    <clipPath id="clippath">
      <rect class="cls-1" width="704" height="704"/>
    </clipPath>
    <clipPath id="clippath-1">
      <rect class="cls-1" x="-737.78" y="-3.63" width="704" height="704"/>
    </clipPath>
  </defs>
  <g id="Layer_9" data-name="Layer 9">
    
    
  </g>
  <g id="Layer_11" data-name="Layer 11">
    <g>
      <path class="cls-4" d="M460.17,326.35c-5.63.4-9.89,5.31-9.48,10.94.2,2.73,1.44,5.22,3.51,7.01,1.88,1.63,4.23,2.5,6.69,2.5.25,0,.5,0,.75-.03,2.73-.19,5.21-1.44,7.01-3.51,1.79-2.07,2.67-4.71,2.48-7.44-.4-5.63-5.32-9.88-10.95-9.48"/>
      <path class="cls-4" d="M118.33,349.13c-.7-.12-1.41-.21-2.13-.29-.43-.05-.87-.11-1.3-.18-6.99-1.14-9.93-5.68-11.16-9.28-1.93-5.66-.84-12.41,2.57-16.06,2.28-2.43,5.35-3.08,9.39-1.98l7.85,2.12,4.25-15.7-7.85-2.12c-9.81-2.66-19.11-.27-25.51,6.55-7.53,8.02-9.98,21.06-6.11,32.43,3.72,10.9,12.44,18.22,23.96,20.09.69.11,1.39.21,2.09.28.45.05.89.11,1.32.18,6.29,1.02,13.1,6.04,11.61,16.81,0,.06-.02.11-.02.17-1.1,7.46-7.93,12.72-15.44,12.11l-8.4-.68-1.33,16.49,7.81.9c1.36.16,2.69.23,3.98.23,16.94,0,27.58-13.07,29.52-26.98,1.08-7.79-.48-15.53-4.39-21.78-4.47-7.15-11.83-11.88-20.71-13.33"/>
      <path class="cls-4" d="M188.83,336.89l8.08.94,1.89-16.15-8.08-.94c-22.21-2.6-42.47-8.12-42.76-8.2l-7.84-2.16-4.32,15.68,7.84,2.16c.45.12,6.12,1.67,14.7,3.53l-3.17,78.86,16.25-.76,3.06-75.01c4.56.76,9.39,1.47,14.35,2.05"/>
      <polygon class="cls-4" points="505.65 376.48 492.38 322.45 476.01 324.65 497.29 409.63 512.99 409.87 539.78 316.19 522.49 319.87 505.65 376.48"/>
      <path class="cls-4" d="M268.79,342.4c7-2.71,24.33,5.57,29.44,9.33l.6-17.47c-2.33-1.73-21.08-13.25-35.87-7.04-10.85,4.56-15.28,15.09-16.95,23.46-2.32,11.64-2.17,25.04.41,36.77,3.15,14.3,9.15,23.01,17.37,25.18,1.37.36,2.7.53,3.98.53,6.41,0,11.16-2.59,14.78-6.38v4.27s16.27-.04,16.27-.04l-.11-51.44h-29.73v16.26h13.32c-1.39,11.02-4.19,16.18-6.97,18.6-3.43,2.97-8.81,1.56-10.6-2.61-.94-2.18-1.91-5.16-2.7-9.15-1.82-9.17-1.85-19.95-.08-28.81,1.27-6.34,3.57-10.2,6.83-11.46"/>
      <path class="cls-4" d="M435.43,341.83c-6.75-7.92-17.84-12.49-31.23-12.84-2-.05-16.01.24-18.79.3l-8.13.17.35,16.26,8.13-.17c.82-.02,1.64-.04,2.47-.05l.58,69.5,9.33-1.48c.4-.07,10-1.64,20.1-7.03,14.18-7.58,22.67-18.99,24.56-32.99,1.77-13.19-.7-23.84-7.36-31.66M426.67,371.32c-1.78,13.2-13.28,20.08-21.78,23.4l-.41-49.45c5.16.22,13.78,1.48,18.56,7.11,3.54,4.15,4.76,10.53,3.62,18.94Z"/>
      <polygon class="cls-4" points="558.27 393.81 559.72 359.24 582.39 357.13 582.39 341.55 560.37 343.6 561.1 326.32 595.16 318.48 594.94 301.63 545.35 315.09 541.29 410.24 588.66 409.78 588.5 393.52 558.27 393.81"/>
      <polygon class="cls-4" points="359.26 345.1 359.26 329.23 308.8 329.23 307.43 410.5 362.38 410.08 362.25 394.21 323.96 394.5 324.3 374.39 348.59 374.39 348.59 359.19 324.56 359.19 324.8 345.1 359.26 345.1"/>
      <path class="cls-4" d="M202.32,394.5h18.5l1.36,15.76,17.4.12-8.59-87.18-16.22-.61-36.79,87.58,17.96-.33,6.38-15.33ZM217.63,357.68l1.78,20.55h-10.32l8.55-20.55Z"/>
      <g>
        <path class="cls-4" d="M198.48,438.34c-.25-.57-.8-.94-1.39-.94h-2.07c-.59,0-1.14.37-1.39.94l-7.16,17.25c-.06.14-.09.31-.09.48,0,.62.51,1.22,1.22,1.22h1.73c.6,0,1.14-.37,1.37-.94l1.28-3.24h7.87l1.28,3.24c.23.57.77.94,1.36.94h2.02c.71,0,1.22-.6,1.22-1.22,0-.17-.03-.34-.09-.48l-7.16-17.25ZM193.67,448.85l2.25-5.62,2.22,5.62h-4.46Z"/>
        <path class="cls-4" d="M226.95,445.95h-5.88c-.71,0-1.31.6-1.31,1.31v1.65c0,.71.6,1.31,1.31,1.31h2.93v2.16c-.46.43-1.93.99-3.13.99-3.55,0-5.88-2.36-5.88-6.02,0-4.09,2.53-6.03,5.8-6.03,1.05,0,1.99.26,2.87.68.23.12.48.17.68.17.48,0,.91-.25,1.19-.74l.77-1.36c.11-.2.17-.43.17-.63,0-.48-.28-.94-.8-1.22-1.5-.82-3.04-1.16-5.43-1.16-6.25,0-10.09,4.57-10.09,10.29,0,6.2,3.84,10.29,10.66,10.29,2.16,0,4.86-.8,6.68-2.16.4-.28.77-.8.77-1.5v-6.71c0-.71-.59-1.31-1.3-1.31"/>
        <path class="cls-4" d="M240.59,431.57l-3.1,2.07c-.4.25-.63.68-.63,1.14,0,.26.09.54.23.77.28.48.8.74,1.31.74.2,0,.42-.06.65-.17l2.42-1.25,2.41,1.25c.23.12.46.17.71.17.51,0,.99-.26,1.33-.77.17-.25.26-.54.26-.82,0-.46-.2-.86-.6-1.11l-3.24-2.02c-.25-.17-.57-.26-.88-.26-.28,0-.59.09-.88.26"/>
        <path class="cls-4" d="M246.42,453.03h-6.22v-3.61h5.09c.71,0,1.31-.6,1.31-1.31v-1.65c0-.71-.6-1.31-1.31-1.31h-5.09v-3.49h5.94c.71,0,1.31-.6,1.31-1.31v-1.65c0-.71-.6-1.31-1.31-1.31h-9.18c-.71,0-1.31.59-1.31,1.31v17.28c0,.71.6,1.31,1.31,1.31h9.46c.71,0,1.31-.6,1.31-1.31v-1.65c0-.71-.6-1.31-1.31-1.31"/>
        <path class="cls-4" d="M271.42,437.4h-1.65c-.71,0-1.31.59-1.31,1.31v10.68l-8.81-11.2c-.37-.48-1.02-.8-1.62-.8h-1.34c-.71,0-1.31.59-1.31,1.31v17.28c0,.71.6,1.31,1.31,1.31h1.65c.71,0,1.31-.6,1.31-1.31v-10.63l8.81,11.14c.37.48,1.03.8,1.62.8h1.33c.71,0,1.31-.6,1.31-1.31v-17.28c0-.71-.59-1.31-1.31-1.31"/>
        <path class="cls-4" d="M295.78,453.08c-.28-.48-.71-.68-1.16-.68-.25,0-.54.06-.82.2-1,.51-2.07.77-3.1.77-3.58,0-6.02-2.5-6.02-6.02,0-3.92,2.5-6.02,5.57-6.02,1.17,0,2.05.2,2.85.51.22.09.45.14.68.14.51,0,1-.25,1.22-.77l.63-1.31c.08-.2.14-.4.14-.63,0-.45-.25-.91-.68-1.11-1.48-.74-2.81-1.11-4.83-1.11-6.85,0-10.4,4.57-10.4,10.29,0,6.2,4.26,10.29,10.43,10.29,2.28,0,4.04-.37,5.77-1.56.43-.31.63-.77.63-1.19,0-.26-.09-.51-.2-.71l-.68-1.08Z"/>
        <path class="cls-4" d="M306.74,437.4h-1.93c-.71,0-1.31.59-1.31,1.31v17.28c0,.71.6,1.31,1.31,1.31h1.93c.71,0,1.31-.6,1.31-1.31v-17.28c0-.71-.59-1.31-1.31-1.31"/>
        <path class="cls-4" d="M326.98,438.34c-.25-.57-.8-.94-1.39-.94h-2.08c-.59,0-1.14.37-1.39.94l-7.16,17.25c-.06.14-.09.31-.09.48,0,.62.51,1.22,1.22,1.22h1.73c.6,0,1.14-.37,1.37-.94l1.28-3.24h7.87l1.28,3.24c.23.57.77.94,1.36.94h2.02c.71,0,1.23-.6,1.23-1.22,0-.17-.03-.34-.09-.48l-7.16-17.25ZM322.18,448.85l2.24-5.62,2.22,5.62h-4.46Z"/>
        <path class="cls-4" d="M369.35,437.4h-2.13c-.59,0-1.08.31-1.42.82l-5.23,7.56-5.54-7.59c-.37-.48-.88-.8-1.48-.8h-2.39c-.71,0-1.31.59-1.31,1.31v17.28c0,.71.6,1.31,1.31,1.31h1.93c.71,0,1.31-.6,1.31-1.31v-11.28l4.12,5.71c.48.66,1.11,1,1.73,1s1.25-.34,1.73-1l4.12-5.79v11.36c0,.71.59,1.31,1.31,1.31h1.93c.71,0,1.31-.6,1.31-1.31v-17.28c0-.71-.6-1.31-1.31-1.31"/>
        <path class="cls-4" d="M394.38,437.4h-1.93c-.71,0-1.31.59-1.31,1.31v9.46c0,3.18-.82,5.2-3.58,5.2-3.19,0-4.12-2.36-4.12-5.45v-9.21c0-.71-.59-1.31-1.3-1.31h-1.94c-.71,0-1.31.59-1.31,1.31v10.17c0,5.83,3.55,8.75,8.67,8.75,4.26,0,8.13-2.47,8.13-8.55v-10.37c0-.71-.6-1.31-1.31-1.31"/>
        <path class="cls-4" d="M407.62,442.8c0-.91.74-1.48,1.99-1.48.82,0,1.56.2,2.24.54.26.14.54.23.77.23.46,0,.85-.23,1.14-.69l.74-1.25c.11-.2.17-.46.17-.68,0-.43-.17-.88-.54-1.11-1.42-.91-2.87-1.31-4.92-1.31-3.98,0-6.43,2.67-6.43,5.74,0,6.42,8.3,6.05,8.3,9.04,0,.94-.68,1.53-1.87,1.53-1.05,0-2.42-.57-3.58-1.33-.28-.2-.57-.29-.88-.29-.4,0-.8.2-1.05.6l-.82,1.19c-.17.23-.23.51-.23.82,0,.37.14.77.42.99,1.94,1.51,4.04,2.27,6.03,2.27,3.84,0,6.82-2.39,6.82-5.86,0-6.48-8.29-5.68-8.29-8.98"/>
        <path class="cls-4" d="M426.69,437.4h-1.93c-.71,0-1.31.59-1.31,1.31v17.28c0,.71.59,1.31,1.31,1.31h1.93c.71,0,1.31-.6,1.31-1.31v-17.28c0-.71-.6-1.31-1.31-1.31"/>
        <path class="cls-4" d="M451.33,453.08c-.28-.48-.71-.68-1.16-.68-.25,0-.54.06-.82.2-.99.51-2.08.77-3.1.77-3.58,0-6.02-2.5-6.02-6.02,0-3.92,2.5-6.02,5.57-6.02,1.17,0,2.05.2,2.85.51.23.09.46.14.68.14.51,0,.99-.25,1.22-.77l.63-1.31c.08-.2.14-.4.14-.63,0-.45-.25-.91-.68-1.11-1.48-.74-2.81-1.11-4.83-1.11-6.85,0-10.4,4.57-10.4,10.29,0,6.2,4.26,10.29,10.43,10.29,2.27,0,4.04-.37,5.77-1.56.43-.31.62-.77.62-1.19,0-.26-.09-.51-.2-.71l-.69-1.08Z"/>
        <path class="cls-4" d="M468.89,438.34c-.25-.57-.8-.94-1.39-.94h-2.07c-.6,0-1.14.37-1.39.94l-7.16,17.25c-.05.14-.08.31-.08.48,0,.62.51,1.22,1.22,1.22h1.73c.6,0,1.14-.37,1.37-.94l1.28-3.24h7.87l1.28,3.24c.23.57.77.94,1.37.94h2.02c.71,0,1.22-.6,1.22-1.22,0-.17-.03-.34-.09-.48l-7.16-17.25ZM464.09,448.85l2.25-5.62,2.21,5.62h-4.46Z"/>
        <path class="cls-4" d="M494.01,453.03h-6.79v-14.32c0-.71-.6-1.31-1.31-1.31h-1.94c-.71,0-1.3.59-1.3,1.31v17.28c0,.71.59,1.31,1.3,1.31h10.03c.71,0,1.31-.6,1.31-1.31v-1.65c0-.71-.59-1.31-1.31-1.31"/>
      </g>
      <rect class="cls-4" x="452.91" y="354.07" width="15.97" height="56.62" transform="translate(-2.77 3.36) rotate(-.42)"/>
    </g>
  </g>
</svg>