<svg xmlns="http://www.w3.org/2000/svg" xmlns:xlink="http://www.w3.org/1999/xlink" xmlns:inkscape="http://www.inkscape.org/namespaces/inkscape" version="1.1" width="717.954" height="259.2" viewBox="0 0 717.954 259.2" fill="#fff">
<defs>
<clipPath id="clip_1">
<path transform="matrix(1,0,0,-1,0,259.2)" d="M0 259.2H717.954V0H0Z"/>
</clipPath>
</defs>
<g inkscape:groupmode="layer" inkscape:label="Camada 1">
<g clip-path="url(#clip_1)">
<path transform="matrix(1,0,0,-1,148.3397,99.56331)" d="M0 0V73.05H35.634V0C35.634-14.075 43.473-22.27 56.657-22.27 69.663-22.27 77.503-14.254 77.503 0V73.05H113.137V0C113.137-36.167 88.549-53.45 56.657-53.45 24.766-53.45 0-36.167 0 0"/>
<path transform="matrix(1,0,0,-1,0,259.2)" d="M371.211 232.686H406.845V107.968H371.211Z"/>
<path transform="matrix(1,0,0,-1,146.8653,204.39572)" d="M0 0 13.621 3.524C15.381-2.464 20.9-5.167 26.888-5.167 33.112-5.167 36.399-2.228 36.399 1.764 36.399 13.623 1.409 4.817 1.409 29.709 1.409 39.454 10.214 46.617 25.128 46.617 37.574 46.617 47.085 42.036 50.02 32.055L36.399 28.535C34.755 33.934 30.177 36.165 25.362 36.165 19.609 36.165 16.556 33.348 16.556 29.827 16.556 17.85 51.665 26.656 51.665 1.878 51.665-8.57 42.388-15.615 27.124-15.615 13.973-15.615 3.171-10.92 0 0"/>
<path transform="matrix(1,0,0,-1,209.921,195.11872)" d="M0 0V36.165H15.853V3.053C15.853-6.342 20.197-11.155 27.711-11.155 36.635-11.155 42.272-4.228 42.272 5.167V36.165H58.24V8.22C58.24-2.464 58.24-13.034 58.828-23.718H43.68L42.389-13.973H41.332C36.635-21.136 29.59-24.892 21.371-24.892 8.102-24.892 0-16.672 0 0"/>
<path transform="matrix(1,0,0,-1,283.0766,218.8363)" d="M0 0V27.945C0 38.629 0 49.199-.587 59.883H14.56L15.617 50.724H16.674C20.784 57.534 27.476 61.058 35.109 61.058 43.914 61.058 49.786 57.066 53.073 49.317H54.13C58.358 57.183 65.52 61.058 73.857 61.058 86.304 61.058 93.349 53.309 93.349 38.044V0H77.496V34.519C77.496 42.975 73.622 47.321 67.164 47.321 59.649 47.321 54.6 41.332 54.6 32.759V0H38.749V34.519C38.749 42.975 34.873 47.321 28.415 47.321 20.9 47.321 15.851 41.332 15.851 32.759V0Z"/>
<path transform="matrix(1,0,0,-1,390.7534,218.8363)" d="M0 0V27.945C0 38.629 0 49.199-.587 59.883H14.56L15.617 50.724H16.674C20.784 57.534 27.476 61.058 35.109 61.058 43.914 61.058 49.786 57.066 53.073 49.317H54.13C58.358 57.183 65.52 61.058 73.858 61.058 86.304 61.058 93.349 53.309 93.349 38.044V0H77.496V34.519C77.496 42.975 73.622 47.321 67.164 47.321 59.649 47.321 54.6 41.332 54.6 32.759V0H38.749V34.519C38.749 42.975 34.873 47.321 28.415 47.321 20.9 47.321 15.851 41.332 15.851 32.759V0Z"/>
<path transform="matrix(1,0,0,-1,0,259.2)" d="M498.43 100.247H514.281V40.364004H498.43ZM496.082 117.155C496.082 122.675 500.544 126.785 506.297 126.785 512.051 126.785 516.513 122.675 516.513 117.155 516.513 111.638 512.051 107.41 506.297 107.41 500.544 107.41 496.082 111.638 496.082 117.155"/>
<path transform="matrix(1,0,0,-1,536.2401,200.16782)" d="M0 0V28.652H-11.507V41.215H.821L3.405 58.123H15.851V41.215H31.82V28.652H15.851V.821C15.851-4.578 18.786-6.927 22.896-6.927 25.246-6.927 27.476-6.456 30.059-4.931L33.934-15.851C29.12-18.786 24.892-19.843 19.256-19.843 7.749-19.843 0-13.501 0 0"/>
<path transform="matrix(1,0,0,-1,314.1313,26.51361)" d="M0 0C24.032-41.612 47.993-83.1 72.028-124.718H-72.015C-48.004-83.134-24.04-41.632 0 0" fill="#ffffff"/>
</g>
</g>
</svg>
